<?xml version="1.0" encoding="UTF-8" standalone="no"?>
<!DOCTYPE svg PUBLIC "-//W3C//DTD SVG 1.1//EN"
 "http://www.w3.org/Graphics/SVG/1.1/DTD/svg11.dtd">
<!-- Generated by graphviz version 2.36.0 (20140111.2315)
 -->
<!-- Title: init Pages: 1 -->
<svg width="1682pt" height="1807pt"
 viewBox="0.00 0.00 1682.00 1807.00" xmlns="http://www.w3.org/2000/svg" xmlns:xlink="http://www.w3.org/1999/xlink">
<g id="graph0" class="graph" transform="scale(1 1) rotate(0) translate(4 1803)">
<title>init</title>
<polygon fill="white" stroke="none" points="-4,4 -4,-1803 1678,-1803 1678,4 -4,4"/>
<g id="clust1" class="cluster"><title>cluster0</title>
<polygon fill="none" stroke="black" stroke-dasharray="5,2" points="8,-1118 8,-1545 358,-1545 358,-1118 8,-1118"/>
<text text-anchor="middle" x="87.5" y="-1529.8" font-family="Ubuntu Mono" font-size="14.00">CONFIG_EARLY_PRINTK</text>
</g>
<g id="clust2" class="cluster"><title>cluster_cmdline_parse</title>
<polygon fill="none" stroke="black" stroke-dasharray="5,2" points="366,-701 366,-1286 890,-1286 890,-701 366,-701"/>
<text text-anchor="middle" x="430.5" y="-1270.8" font-family="Ubuntu Mono" font-size="14.00">commdline parse</text>
</g>
<g id="clust3" class="cluster"><title>cluster_console_initcall</title>
<polygon fill="none" stroke="black" stroke-dasharray="5,2" points="898,-716 898,-992 1222,-992 1222,-716 898,-716"/>
<text text-anchor="middle" x="966.5" y="-976.8" font-family="Ubuntu Mono" font-size="14.00">console_initcall</text>
</g>
<g id="clust4" class="cluster"><title>cluster_module_init</title>
<polygon fill="none" stroke="black" stroke-dasharray="5,2" points="1018,-8 1018,-681 1666,-681 1666,-8 1018,-8"/>
<text text-anchor="middle" x="1067.5" y="-665.8" font-family="Ubuntu Mono" font-size="14.00">module_init</text>
</g>
<!-- title -->
<g id="node1" class="node"><title>title</title>
<text text-anchor="middle" x="797" y="-1774.5" font-family="Times,serif" font-size="30.00">Console Init</text>
</g>
<!-- start_kernel -->
<g id="node2" class="node"><title>start_kernel</title>
<ellipse fill="none" stroke="black" cx="797" cy="-1692" rx="56.3526" ry="26.7407"/>
<text text-anchor="middle" x="797" y="-1695.8" font-family="Times,serif" font-size="14.00">start_kernel</text>
<text text-anchor="middle" x="797" y="-1680.8" font-family="Times,serif" font-size="14.00">init/main.c</text>
</g>
<!-- title&#45;&gt;start_kernel -->
<!-- setup_arch -->
<g id="node3" class="node"><title>setup_arch</title>
<ellipse fill="none" stroke="black" cx="603" cy="-1600" rx="97.3709" ry="26.7407"/>
<text text-anchor="middle" x="603" y="-1603.8" font-family="Times,serif" font-size="14.00">setup_arch</text>
<text text-anchor="middle" x="603" y="-1588.8" font-family="Times,serif" font-size="14.00">arch/rlx/kernel/setup.c</text>
</g>
<!-- start_kernel&#45;&gt;setup_arch -->
<g id="edge19" class="edge"><title>start_kernel&#45;&gt;setup_arch</title>
<path fill="none" stroke="black" d="M757.273,-1672.57C729.445,-1659.66 691.819,-1642.2 660.693,-1627.76"/>
<polygon fill="black" stroke="black" points="661.804,-1624.42 651.26,-1623.39 658.858,-1630.77 661.804,-1624.42"/>
</g>
<!-- console_init -->
<g id="node7" class="node"><title>console_init</title>
<ellipse fill="none" stroke="black" cx="797" cy="-1487" rx="82.5969" ry="26.7407"/>
<text text-anchor="middle" x="797" y="-1490.8" font-family="Times,serif" font-size="14.00">console_init</text>
<text text-anchor="middle" x="797" y="-1475.8" font-family="Times,serif" font-size="14.00">drivers/tty/tty_io.c</text>
</g>
<!-- start_kernel&#45;&gt;console_init -->
<g id="edge23" class="edge"><title>start_kernel&#45;&gt;console_init</title>
<path fill="none" stroke="black" d="M797,-1664.88C797,-1629.1 797,-1564.68 797,-1524.25"/>
<polygon fill="black" stroke="black" points="800.5,-1524.02 797,-1514.02 793.5,-1524.02 800.5,-1524.02"/>
</g>
<!-- rest_init -->
<g id="node10" class="node"><title>rest_init</title>
<ellipse fill="none" stroke="black" cx="1052" cy="-1395" rx="53.6096" ry="26.7407"/>
<text text-anchor="middle" x="1052" y="-1398.8" font-family="Times,serif" font-size="14.00">rest_init</text>
<text text-anchor="middle" x="1052" y="-1383.8" font-family="Times,serif" font-size="14.00">init/main.c</text>
</g>
<!-- start_kernel&#45;&gt;rest_init -->
<g id="edge27" class="edge"><title>start_kernel&#45;&gt;rest_init</title>
<path fill="none" stroke="black" d="M817.868,-1666.86C863.744,-1613.79 973.361,-1486.97 1024.66,-1427.63"/>
<polygon fill="black" stroke="black" points="1027.31,-1429.92 1031.2,-1420.06 1022.01,-1425.34 1027.31,-1429.92"/>
</g>
<!-- setup_early_printk -->
<g id="node4" class="node"><title>setup_early_printk</title>
<ellipse fill="none" stroke="black" cx="226" cy="-1487" rx="124.176" ry="26.7407"/>
<text text-anchor="middle" x="226" y="-1490.8" font-family="Times,serif" font-size="14.00">setup_early_printk</text>
<text text-anchor="middle" x="226" y="-1475.8" font-family="Times,serif" font-size="14.00">arch/rlx/kernel/early_printk.c</text>
</g>
<!-- setup_arch&#45;&gt;setup_early_printk -->
<g id="edge20" class="edge"><title>setup_arch&#45;&gt;setup_early_printk</title>
<path fill="none" stroke="black" d="M538.191,-1579.92C474.282,-1561.1 376.409,-1532.28 307.314,-1511.94"/>
<polygon fill="black" stroke="black" points="307.917,-1508.47 297.336,-1509 305.94,-1515.19 307.917,-1508.47"/>
</g>
<!-- arch_mem_init -->
<g id="node6" class="node"><title>arch_mem_init</title>
<ellipse fill="none" stroke="black" cx="535" cy="-1395" rx="97.3709" ry="26.7407"/>
<text text-anchor="middle" x="535" y="-1398.8" font-family="Times,serif" font-size="14.00">arch_mem_init</text>
<text text-anchor="middle" x="535" y="-1383.8" font-family="Times,serif" font-size="14.00">arch/rlx/kernel/setup.c</text>
</g>
<!-- setup_arch&#45;&gt;arch_mem_init -->
<g id="edge21" class="edge"><title>setup_arch&#45;&gt;arch_mem_init</title>
<path fill="none" stroke="black" d="M594.249,-1572.88C582.213,-1536.94 560.503,-1472.13 546.971,-1431.74"/>
<polygon fill="black" stroke="black" points="550.212,-1430.39 543.717,-1422.02 543.575,-1432.62 550.212,-1430.39"/>
</g>
<!-- setup_arch&#45;&gt;console_init -->
<!-- register_early_console -->
<g id="node5" class="node"><title>register_early_console</title>
<ellipse fill="none" stroke="black" cx="183" cy="-1395" rx="166.316" ry="26.7407"/>
<text text-anchor="middle" x="183" y="-1398.8" font-family="Times,serif" font-size="14.00">register_console(&amp;early_console_prom)</text>
<text text-anchor="middle" x="183" y="-1383.8" font-family="Times,serif" font-size="14.00">register bootconsole</text>
</g>
<!-- setup_early_printk&#45;&gt;register_early_console -->
<g id="edge1" class="edge"><title>setup_early_printk&#45;&gt;register_early_console</title>
<path fill="none" stroke="black" d="M213.563,-1459.97C209.284,-1451.01 204.419,-1440.83 199.849,-1431.27"/>
<polygon fill="black" stroke="black" points="202.879,-1429.49 195.409,-1421.97 196.562,-1432.51 202.879,-1429.49"/>
</g>
<!-- setup_early_printk&#45;&gt;arch_mem_init -->
<!-- early_register -->
<g id="node13" class="node"><title>early_register</title>
<text text-anchor="start" x="80.5" y="-1314.3" font-family="Times,serif" font-size="14.00" fill="darkslateblue">prefered_console = selected_console;</text>
<text text-anchor="start" x="80.5" y="-1299.3" font-family="Times,serif" font-size="14.00" fill="darkslateblue">newcon&#45;&gt;index = 0;</text>
<text text-anchor="start" x="80.5" y="-1284.3" font-family="Times,serif" font-size="14.00" fill="darkslateblue">newcon&#45;&gt;flags |= CON_ENABLED;</text>
<text text-anchor="start" x="80.5" y="-1269.3" font-family="Times,serif" font-size="14.00" fill="darkslateblue">console_lock();</text>
<text text-anchor="start" x="80.5" y="-1254.3" font-family="Times,serif" font-size="14.00" fill="darkslateblue">newcon&#45;&gt;next = console_drivers;</text>
<text text-anchor="start" x="80.5" y="-1239.3" font-family="Times,serif" font-size="14.00" fill="darkslateblue">console_drivers = newcon;</text>
<text text-anchor="start" x="80.5" y="-1224.3" font-family="Times,serif" font-size="14.00" fill="darkslateblue">console_seq = syslog_seq;</text>
<text text-anchor="start" x="80.5" y="-1209.3" font-family="Times,serif" font-size="14.00" fill="darkslateblue">...;</text>
<text text-anchor="start" x="80.5" y="-1194.3" font-family="Times,serif" font-size="14.00" fill="darkslateblue">execlusive_console = newcon;</text>
<text text-anchor="start" x="80.5" y="-1179.3" font-family="Times,serif" font-size="14.00" fill="darkslateblue">console_unlock();</text>
<text text-anchor="start" x="80.5" y="-1164.3" font-family="Times,serif" font-size="14.00" fill="darkslateblue"> &#45;&#45;&gt;call_console_drivers();</text>
<text text-anchor="start" x="80.5" y="-1149.3" font-family="Times,serif" font-size="14.00" fill="darkslateblue"> &#160;&#45;&#45;&gt;con&#45;&gt;write();</text>
<text text-anchor="middle" x="183" y="-1134.3" font-family="Times,serif" font-size="14.00" fill="darkslateblue">printk(&quot;bootconsole XXX enabled&quot;);</text>
</g>
<!-- register_early_console&#45;&gt;early_register -->
<g id="edge2" class="edge"><title>register_early_console&#45;&gt;early_register</title>
<path fill="none" stroke="black" d="M183,-1367.86C183,-1359.66 183,-1350.05 183,-1339.76"/>
<polygon fill="black" stroke="black" points="186.5,-1339.73 183,-1329.73 179.5,-1339.73 186.5,-1339.73"/>
</g>
<!-- parse_early_param -->
<g id="node14" class="node"><title>parse_early_param</title>
<ellipse fill="none" stroke="black" cx="535" cy="-1228" rx="84.2802" ry="26.7407"/>
<text text-anchor="middle" x="535" y="-1231.8" font-family="Times,serif" font-size="14.00">parse_early_param</text>
<text text-anchor="middle" x="535" y="-1216.8" font-family="Times,serif" font-size="14.00">init/main.c</text>
</g>
<!-- arch_mem_init&#45;&gt;parse_early_param -->
<g id="edge22" class="edge"><title>arch_mem_init&#45;&gt;parse_early_param</title>
<path fill="none" stroke="black" d="M535,-1367.86C535,-1340.22 535,-1296.42 535,-1265.41"/>
<polygon fill="black" stroke="black" points="538.5,-1265.02 535,-1255.02 531.5,-1265.02 538.5,-1265.02"/>
</g>
<!-- tty_ldisc_begin -->
<g id="node8" class="node"><title>tty_ldisc_begin</title>
<ellipse fill="none" stroke="black" cx="747" cy="-1395" rx="93.0077" ry="26.7407"/>
<text text-anchor="middle" x="747" y="-1398.8" font-family="Times,serif" font-size="14.00">tty_ldisc_begin</text>
<text text-anchor="middle" x="747" y="-1383.8" font-family="Times,serif" font-size="14.00">drivers/tty/tty_ldisc.c</text>
</g>
<!-- console_init&#45;&gt;tty_ldisc_begin -->
<g id="edge24" class="edge"><title>console_init&#45;&gt;tty_ldisc_begin</title>
<path fill="none" stroke="black" d="M782.806,-1460.45C777.633,-1451.14 771.697,-1440.45 766.164,-1430.49"/>
<polygon fill="black" stroke="black" points="769.146,-1428.66 761.23,-1421.61 763.027,-1432.05 769.146,-1428.66"/>
</g>
<!-- __con_initcall -->
<g id="node9" class="node"><title>__con_initcall</title>
<ellipse fill="none" stroke="black" cx="919" cy="-1395" rx="61.1419" ry="18"/>
<text text-anchor="middle" x="919" y="-1391.3" font-family="Times,serif" font-size="14.00">__con_initcall</text>
</g>
<!-- console_init&#45;&gt;__con_initcall -->
<g id="edge25" class="edge"><title>console_init&#45;&gt;__con_initcall</title>
<path fill="none" stroke="black" d="M829.373,-1462.12C847.816,-1448.51 870.772,-1431.58 888.835,-1418.25"/>
<polygon fill="black" stroke="black" points="891.298,-1420.78 897.268,-1412.03 887.143,-1415.15 891.298,-1420.78"/>
</g>
<!-- console_init&#45;&gt;rest_init -->
<!-- serial8250_console_init -->
<g id="node20" class="node"><title>serial8250_console_init</title>
<polygon fill="none" stroke="black" points="1137,-961 931,-961 931,-923 1137,-923 1137,-961"/>
<text text-anchor="middle" x="1034" y="-945.8" font-family="Times,serif" font-size="14.00">serial8250_console_init</text>
<text text-anchor="middle" x="1034" y="-930.8" font-family="Times,serif" font-size="14.00">drivers/tty/serial/8250/8250_core.c</text>
</g>
<!-- __con_initcall&#45;&gt;serial8250_console_init -->
<g id="edge26" class="edge"><title>__con_initcall&#45;&gt;serial8250_console_init</title>
<path fill="none" stroke="black" d="M923.368,-1376.87C940.776,-1308.6 1005.31,-1055.51 1026.91,-970.818"/>
<polygon fill="black" stroke="black" points="1030.3,-971.679 1029.38,-961.124 1023.52,-969.949 1030.3,-971.679"/>
</g>
<!-- kernel_thread -->
<g id="node11" class="node"><title>kernel_thread</title>
<ellipse fill="none" stroke="black" cx="1243" cy="-1228" rx="115.06" ry="18"/>
<text text-anchor="middle" x="1243" y="-1224.3" font-family="Times,serif" font-size="14.00">kernel_thread(kernel_init, ...)</text>
</g>
<!-- rest_init&#45;&gt;kernel_thread -->
<g id="edge28" class="edge"><title>rest_init&#45;&gt;kernel_thread</title>
<path fill="none" stroke="black" d="M1078.16,-1371.4C1114.25,-1340.22 1179.02,-1284.27 1215.7,-1252.58"/>
<polygon fill="black" stroke="black" points="1218.24,-1255.01 1223.52,-1245.83 1213.67,-1249.72 1218.24,-1255.01"/>
</g>
<!-- kernel_init -->
<g id="node12" class="node"><title>kernel_init</title>
<ellipse fill="none" stroke="blue" stroke-dasharray="5,2" cx="1299" cy="-1047" rx="53.6096" ry="26.7407"/>
<text text-anchor="middle" x="1299" y="-1050.8" font-family="Times,serif" font-size="14.00">kernel_init</text>
<text text-anchor="middle" x="1299" y="-1035.8" font-family="Times,serif" font-size="14.00">init/main.c</text>
</g>
<!-- kernel_thread&#45;&gt;kernel_init -->
<g id="edge33" class="edge"><title>kernel_thread&#45;&gt;kernel_init</title>
<path fill="none" stroke="blue" stroke-dasharray="5,2" d="M1248.37,-1209.84C1257.44,-1180.84 1275.98,-1121.58 1287.93,-1083.38"/>
<polygon fill="blue" stroke="blue" points="1291.32,-1084.27 1290.96,-1073.68 1284.64,-1082.18 1291.32,-1084.27"/>
<text text-anchor="middle" x="1310" y="-1096.3" font-family="Times,serif" font-size="14.00" fill="blue">threading</text>
</g>
<!-- kernel_init_freeable -->
<g id="node32" class="node"><title>kernel_init_freeable</title>
<ellipse fill="none" stroke="black" cx="1311" cy="-942" rx="81.3646" ry="18"/>
<text text-anchor="middle" x="1311" y="-938.3" font-family="Times,serif" font-size="14.00">kernel_init_freeable</text>
</g>
<!-- kernel_init&#45;&gt;kernel_init_freeable -->
<g id="edge29" class="edge"><title>kernel_init&#45;&gt;kernel_init_freeable</title>
<path fill="none" stroke="black" d="M1302.03,-1020.01C1303.8,-1004.8 1306.03,-985.632 1307.83,-970.22"/>
<polygon fill="black" stroke="black" points="1311.31,-970.585 1308.99,-960.247 1304.36,-969.775 1311.31,-970.585"/>
</g>
<!-- parse_early_options -->
<g id="node15" class="node"><title>parse_early_options</title>
<ellipse fill="none" stroke="black" cx="535" cy="-1047" rx="81.3646" ry="18"/>
<text text-anchor="middle" x="535" y="-1043.3" font-family="Times,serif" font-size="14.00">parse_early_options</text>
</g>
<!-- parse_early_param&#45;&gt;parse_early_options -->
<g id="edge3" class="edge"><title>parse_early_param&#45;&gt;parse_early_options</title>
<path fill="none" stroke="black" d="M535,-1200.97C535,-1167.55 535,-1109.8 535,-1075.62"/>
<polygon fill="black" stroke="black" points="538.5,-1075.41 535,-1065.41 531.5,-1075.41 538.5,-1075.41"/>
</g>
<!-- do_early_param -->
<g id="node16" class="node"><title>do_early_param</title>
<ellipse fill="none" stroke="black" cx="535" cy="-942" rx="68.3664" ry="18"/>
<text text-anchor="middle" x="535" y="-938.3" font-family="Times,serif" font-size="14.00">do_early_param</text>
</g>
<!-- parse_early_options&#45;&gt;do_early_param -->
<g id="edge4" class="edge"><title>parse_early_options&#45;&gt;do_early_param</title>
<path fill="none" stroke="black" d="M535,-1028.99C535,-1013.04 535,-988.913 535,-970.272"/>
<polygon fill="black" stroke="black" points="538.5,-970.034 535,-960.034 531.5,-970.034 538.5,-970.034"/>
</g>
<!-- console_setup -->
<g id="node17" class="node"><title>console_setup</title>
<ellipse fill="none" stroke="black" cx="535" cy="-858" rx="155.906" ry="26.7407"/>
<text text-anchor="middle" x="535" y="-861.8" font-family="Times,serif" font-size="14.00">__setup(&quot;console = &quot;, console_setup)</text>
<text text-anchor="middle" x="535" y="-846.8" font-family="Times,serif" font-size="14.00">kernel/printk.c</text>
</g>
<!-- do_early_param&#45;&gt;console_setup -->
<g id="edge5" class="edge"><title>do_early_param&#45;&gt;console_setup</title>
<path fill="none" stroke="black" d="M535,-923.61C535,-915.306 535,-905.041 535,-895.157"/>
<polygon fill="black" stroke="black" points="538.5,-895.093 535,-885.093 531.5,-895.093 538.5,-895.093"/>
</g>
<!-- console_cmdline -->
<g id="node18" class="node"><title>console_cmdline</title>
<ellipse fill="none" stroke="black" cx="764" cy="-751" rx="117.459" ry="18"/>
<text text-anchor="middle" x="764" y="-747.3" font-family="Times,serif" font-size="14.00">cmdline: &quot;console = ttyS1 ...&quot;</text>
</g>
<!-- console_setup&#45;&gt;console_cmdline -->
<g id="edge6" class="edge"><title>console_setup&#45;&gt;console_cmdline</title>
<path fill="none" stroke="black" d="M588.113,-832.647C627.943,-814.384 681.843,-789.67 719.438,-772.432"/>
<polygon fill="black" stroke="black" points="720.995,-775.569 728.627,-768.219 718.078,-769.206 720.995,-775.569"/>
</g>
<!-- cmdline_register -->
<g id="node19" class="node"><title>cmdline_register</title>
<text text-anchor="start" x="382" y="-777.3" font-family="Times,serif" font-size="14.00" fill="darkslateblue">__add_preferred_console();</text>
<text text-anchor="start" x="382" y="-762.3" font-family="Times,serif" font-size="14.00" fill="darkslateblue"> selected_console = i;</text>
<text text-anchor="start" x="382" y="-747.3" font-family="Times,serif" font-size="14.00" fill="darkslateblue"> c = &amp;console_cmdline[i];</text>
<text text-anchor="start" x="382" y="-732.3" font-family="Times,serif" font-size="14.00" fill="darkslateblue"> strlcpy(c&#45;&gt;name, name, sizeof(c&#45;&gt;name));</text>
<text text-anchor="middle" x="501" y="-717.3" font-family="Times,serif" font-size="14.00" fill="darkslateblue">c&#45;&gt;index = idx;</text>
</g>
<!-- console_setup&#45;&gt;cmdline_register -->
<g id="edge7" class="edge"><title>console_setup&#45;&gt;cmdline_register</title>
<path fill="none" stroke="black" d="M526.596,-831.045C523.793,-822.391 520.568,-812.431 517.373,-802.563"/>
<polygon fill="black" stroke="black" points="520.614,-801.212 514.204,-792.777 513.955,-803.368 520.614,-801.212"/>
</g>
<!-- register_8250_console -->
<g id="node21" class="node"><title>register_8250_console</title>
<polygon fill="none" stroke="black" points="1214,-877 906,-877 906,-839 1214,-839 1214,-877"/>
<text text-anchor="middle" x="1060" y="-861.8" font-family="Times,serif" font-size="14.00">register_console(&amp;serial8250_console)</text>
<text text-anchor="middle" x="1060" y="-846.8" font-family="Times,serif" font-size="14.00">register realconsole failed, due to bootcmdline param</text>
</g>
<!-- serial8250_console_init&#45;&gt;register_8250_console -->
<g id="edge8" class="edge"><title>serial8250_console_init&#45;&gt;register_8250_console</title>
<path fill="none" stroke="black" d="M1039.77,-922.802C1043.1,-912.291 1047.36,-898.85 1051.12,-887.018"/>
<polygon fill="black" stroke="black" points="1054.56,-887.738 1054.25,-877.148 1047.89,-885.622 1054.56,-887.738"/>
</g>
<!-- register_8250_console&#45;&gt;console_cmdline -->
<g id="edge38" class="edge"><title>register_8250_console&#45;&gt;console_cmdline</title>
<path fill="none" stroke="black" stroke-dasharray="5,2" d="M1009.12,-838.95C955.787,-820.033 872.339,-790.431 817.905,-771.122"/>
<polygon fill="black" stroke="black" points="819.022,-767.804 808.427,-767.759 816.681,-774.401 819.022,-767.804"/>
</g>
<!-- console_8250_register -->
<g id="node22" class="node"><title>console_8250_register</title>
<text text-anchor="start" x="994" y="-762.3" font-family="Times,serif" font-size="14.00" fill="darkslateblue">bcon = console_drivers;</text>
<text text-anchor="start" x="994" y="-747.3" font-family="Times,serif" font-size="14.00" fill="darkslateblue">preferred_console = i;</text>
<text text-anchor="middle" x="1060" y="-732.3" font-family="Times,serif" font-size="14.00" fill="darkslateblue">return;</text>
</g>
<!-- register_8250_console&#45;&gt;console_8250_register -->
<g id="edge9" class="edge"><title>register_8250_console&#45;&gt;console_8250_register</title>
<path fill="none" stroke="black" d="M1060,-838.71C1060,-824.697 1060,-804.924 1060,-787.798"/>
<polygon fill="black" stroke="black" points="1063.5,-787.552 1060,-777.552 1056.5,-787.552 1063.5,-787.552"/>
</g>
<!-- serial8250_init -->
<g id="node23" class="node"><title>serial8250_init</title>
<polygon fill="none" stroke="black" points="1414,-650 1208,-650 1208,-612 1414,-612 1414,-650"/>
<text text-anchor="middle" x="1311" y="-634.8" font-family="Times,serif" font-size="14.00">serial8250_init</text>
<text text-anchor="middle" x="1311" y="-619.8" font-family="Times,serif" font-size="14.00">drivers/tty/serial/8250/8250_core.c</text>
</g>
<!-- register_8250_uart_driver -->
<g id="node24" class="node"><title>register_8250_uart_driver</title>
<polygon fill="none" stroke="black" points="1356.5,-574 1133.5,-574 1133.5,-538 1356.5,-538 1356.5,-574"/>
<text text-anchor="middle" x="1245" y="-552.3" font-family="Times,serif" font-size="14.00" fill="green">uart_register_driver(&amp;serial8250_reg)</text>
</g>
<!-- serial8250_init&#45;&gt;register_8250_uart_driver -->
<g id="edge14" class="edge"><title>serial8250_init&#45;&gt;register_8250_uart_driver</title>
<path fill="none" stroke="black" d="M1294.69,-611.955C1286.49,-602.893 1276.44,-591.772 1267.52,-581.91"/>
<polygon fill="black" stroke="black" points="1269.98,-579.405 1260.67,-574.335 1264.78,-584.1 1269.98,-579.405"/>
</g>
<!-- serial8250_register_ports -->
<g id="node25" class="node"><title>serial8250_register_ports</title>
<polygon fill="none" stroke="black" points="1476.25,-500 1207.75,-500 1207.75,-464 1476.25,-464 1476.25,-500"/>
<text text-anchor="middle" x="1342" y="-478.3" font-family="Times,serif" font-size="14.00">serial8250_register_ports(&amp;serial8250_reg, ..)</text>
</g>
<!-- serial8250_init&#45;&gt;serial8250_register_ports -->
<g id="edge10" class="edge"><title>serial8250_init&#45;&gt;serial8250_register_ports</title>
<path fill="none" stroke="black" d="M1335.67,-611.857C1346.89,-602.052 1358.98,-588.904 1365,-574 1373.52,-552.896 1365.9,-527.736 1357.21,-509.226"/>
<polygon fill="black" stroke="black" points="1360.29,-507.554 1352.65,-500.209 1354.04,-510.712 1360.29,-507.554"/>
</g>
<!-- register_8250_uart_driver&#45;&gt;serial8250_register_ports -->
<!-- uart_add_one_port -->
<g id="node26" class="node"><title>uart_add_one_port</title>
<polygon fill="none" stroke="black" points="1401.25,-426 1282.75,-426 1282.75,-390 1401.25,-390 1401.25,-426"/>
<text text-anchor="middle" x="1342" y="-404.3" font-family="Times,serif" font-size="14.00" fill="green">uart_add_one_port</text>
</g>
<!-- serial8250_register_ports&#45;&gt;uart_add_one_port -->
<g id="edge11" class="edge"><title>serial8250_register_ports&#45;&gt;uart_add_one_port</title>
<path fill="none" stroke="black" d="M1342,-463.937C1342,-455.807 1342,-445.876 1342,-436.705"/>
<polygon fill="black" stroke="black" points="1345.5,-436.441 1342,-426.441 1338.5,-436.441 1345.5,-436.441"/>
</g>
<!-- uart_configure_port -->
<g id="node27" class="node"><title>uart_configure_port</title>
<polygon fill="none" stroke="black" points="1404.25,-352 1279.75,-352 1279.75,-316 1404.25,-316 1404.25,-352"/>
<text text-anchor="middle" x="1342" y="-330.3" font-family="Times,serif" font-size="14.00">uart_configure_port</text>
</g>
<!-- uart_add_one_port&#45;&gt;uart_configure_port -->
<g id="edge12" class="edge"><title>uart_add_one_port&#45;&gt;uart_configure_port</title>
<path fill="none" stroke="black" d="M1342,-389.937C1342,-381.807 1342,-371.876 1342,-362.705"/>
<polygon fill="black" stroke="black" points="1345.5,-362.441 1342,-352.441 1338.5,-362.441 1345.5,-362.441"/>
</g>
<!-- register_console -->
<g id="node28" class="node"><title>register_console</title>
<polygon fill="none" stroke="black" points="1394.25,-278 1289.75,-278 1289.75,-242 1394.25,-242 1394.25,-278"/>
<text text-anchor="middle" x="1342" y="-256.3" font-family="Times,serif" font-size="14.00">register_console</text>
</g>
<!-- uart_configure_port&#45;&gt;register_console -->
<g id="edge13" class="edge"><title>uart_configure_port&#45;&gt;register_console</title>
<path fill="none" stroke="black" d="M1342,-315.937C1342,-307.807 1342,-297.876 1342,-288.705"/>
<polygon fill="black" stroke="black" points="1345.5,-288.441 1342,-278.441 1338.5,-288.441 1345.5,-288.441"/>
</g>
<!-- register_console_ttyS0 -->
<g id="node29" class="node"><title>register_console_ttyS0</title>
<text text-anchor="start" x="1034" y="-128.8" font-family="Times,serif" font-size="14.00" fill="darkslateblue">ttyS0:</text>
<text text-anchor="start" x="1034" y="-113.8" font-family="Times,serif" font-size="14.00" fill="darkslateblue">bcon = console_drivers;</text>
<text text-anchor="start" x="1034" y="-98.8" font-family="Times,serif" font-size="14.00" fill="darkslateblue">preferred_console = i;</text>
<text text-anchor="middle" x="1100" y="-83.8" font-family="Times,serif" font-size="14.00" fill="darkslateblue">return;</text>
</g>
<!-- register_console&#45;&gt;register_console_ttyS0 -->
<g id="edge15" class="edge"><title>register_console&#45;&gt;register_console_ttyS0</title>
<path fill="none" stroke="black" d="M1289.55,-248.025C1256.99,-239.54 1215.33,-225.536 1183,-204 1162.38,-190.267 1143.61,-170.222 1129.15,-152.254"/>
<polygon fill="black" stroke="black" points="1131.74,-149.888 1122.82,-144.175 1126.23,-154.205 1131.74,-149.888"/>
</g>
<!-- register_console_ttyS1 -->
<g id="node30" class="node"><title>register_console_ttyS1</title>
<text text-anchor="start" x="1200.5" y="-188.8" font-family="Times,serif" font-size="14.00" fill="darkslateblue">ttyS1:</text>
<text text-anchor="start" x="1200.5" y="-173.8" font-family="Times,serif" font-size="14.00" fill="darkslateblue">bcon = console_drivers;</text>
<text text-anchor="start" x="1200.5" y="-158.8" font-family="Times,serif" font-size="14.00" fill="darkslateblue">preferred_console = i;</text>
<text text-anchor="start" x="1200.5" y="-143.8" font-family="Times,serif" font-size="14.00" fill="darkslateblue">newcon&#45;&gt;flags |= CON_ENABLED;</text>
<text text-anchor="start" x="1200.5" y="-128.8" font-family="Times,serif" font-size="14.00" fill="darkslateblue">newcon&#45;&gt;index = console_cmdline[i].index;</text>
<text text-anchor="middle" x="1342" y="-113.8" font-family="Times,serif" font-size="14.00" fill="darkslateblue">newcon&#45;&gt;flags |= CON_CONSDEV;</text>
<text text-anchor="start" x="1200.5" y="-98.8" font-family="Times,serif" font-size="14.00" fill="darkslateblue">		preferred_console = selected_console;</text>
<text text-anchor="start" x="1200.5" y="-83.8" font-family="Times,serif" font-size="14.00" fill="darkslateblue">newcon&#45;&gt;flags &amp;= ~CON_PRINTBUFER;</text>
<text text-anchor="start" x="1200.5" y="-68.8" font-family="Times,serif" font-size="14.00" fill="darkslateblue">newcon&#45;&gt;next = console_drivers;</text>
<text text-anchor="start" x="1200.5" y="-53.8" font-family="Times,serif" font-size="14.00" fill="darkslateblue">console_drivers&#45;&gt;next = newcon;</text>
<text text-anchor="start" x="1200.5" y="-38.8" font-family="Times,serif" font-size="14.00" fill="darkslateblue">console_unlock();</text>
<text text-anchor="middle" x="1342" y="-23.8" font-family="Times,serif" font-size="14.00" fill="darkslateblue">printk(console ttyS1 enabled, bootconsole disabled)</text>
</g>
<!-- register_console&#45;&gt;register_console_ttyS1 -->
<g id="edge16" class="edge"><title>register_console&#45;&gt;register_console_ttyS1</title>
<path fill="none" stroke="black" d="M1342,-241.733C1342,-234.221 1342,-224.76 1342,-214.377"/>
<polygon fill="black" stroke="black" points="1345.5,-214.174 1342,-204.174 1338.5,-214.175 1345.5,-214.174"/>
</g>
<!-- register_console_ttyS2 -->
<g id="node31" class="node"><title>register_console_ttyS2</title>
<text text-anchor="start" x="1518" y="-128.8" font-family="Times,serif" font-size="14.00" fill="darkslateblue">ttyS2:</text>
<text text-anchor="start" x="1518" y="-113.8" font-family="Times,serif" font-size="14.00" fill="darkslateblue">bcon = console_drivers;</text>
<text text-anchor="start" x="1518" y="-98.8" font-family="Times,serif" font-size="14.00" fill="darkslateblue">preferred_console = i;</text>
<text text-anchor="middle" x="1584" y="-83.8" font-family="Times,serif" font-size="14.00" fill="darkslateblue">return;</text>
</g>
<!-- register_console&#45;&gt;register_console_ttyS2 -->
<g id="edge17" class="edge"><title>register_console&#45;&gt;register_console_ttyS2</title>
<path fill="none" stroke="black" d="M1394.44,-247.8C1426.73,-239.256 1467.93,-225.27 1500,-204 1520.76,-190.235 1539.74,-170.186 1554.4,-152.224"/>
<polygon fill="black" stroke="black" points="1557.33,-154.155 1560.81,-144.149 1551.85,-149.8 1557.33,-154.155"/>
</g>
<!-- do_basic_setup -->
<g id="node33" class="node"><title>do_basic_setup</title>
<ellipse fill="none" stroke="black" cx="1311" cy="-858" rx="64.4914" ry="18"/>
<text text-anchor="middle" x="1311" y="-854.3" font-family="Times,serif" font-size="14.00">do_basic_setup</text>
</g>
<!-- kernel_init_freeable&#45;&gt;do_basic_setup -->
<g id="edge30" class="edge"><title>kernel_init_freeable&#45;&gt;do_basic_setup</title>
<path fill="none" stroke="black" d="M1311,-923.61C1311,-912.774 1311,-898.601 1311,-886.291"/>
<polygon fill="black" stroke="black" points="1314.5,-886.084 1311,-876.084 1307.5,-886.084 1314.5,-886.084"/>
</g>
<!-- do_initcalls -->
<g id="node34" class="node"><title>do_initcalls</title>
<ellipse fill="none" stroke="black" cx="1311" cy="-751" rx="51.4931" ry="18"/>
<text text-anchor="middle" x="1311" y="-747.3" font-family="Times,serif" font-size="14.00">do_initcalls</text>
</g>
<!-- do_basic_setup&#45;&gt;do_initcalls -->
<g id="edge31" class="edge"><title>do_basic_setup&#45;&gt;do_initcalls</title>
<path fill="none" stroke="black" d="M1311,-839.661C1311,-823.225 1311,-798.278 1311,-779.194"/>
<polygon fill="black" stroke="black" points="1314.5,-779.016 1311,-769.016 1307.5,-779.016 1314.5,-779.016"/>
</g>
<!-- do_initcalls&#45;&gt;serial8250_init -->
<g id="edge32" class="edge"><title>do_initcalls&#45;&gt;serial8250_init</title>
<path fill="none" stroke="black" d="M1311,-732.842C1311,-713.86 1311,-682.972 1311,-660.376"/>
<polygon fill="black" stroke="black" points="1314.5,-660.344 1311,-650.344 1307.5,-660.344 1314.5,-660.344"/>
</g>
</g>
</svg>
