<?xml version="1.0" encoding="UTF-8"?><svg xmlns="http://www.w3.org/2000/svg" xmlns:xlink="http://www.w3.org/1999/xlink" fill-opacity="1" color-rendering="auto" color-interpolation="auto" text-rendering="auto" stroke="black" stroke-linecap="square" width="2000" stroke-miterlimit="10" shape-rendering="auto" stroke-opacity="1" fill="black" stroke-dasharray="none" font-weight="normal" stroke-width="1" height="1320" font-family="'Dialog'" font-style="normal" stroke-linejoin="miter" font-size="12px" stroke-dashoffset="0" image-rendering="auto">
  <!--Generated by ySVG 2.5-->
  <defs id="genericDefs"/>
  <g>
    <g fill="white" text-rendering="geometricPrecision" shape-rendering="geometricPrecision" transform="translate(-711,-867)" stroke="white">
      <rect x="711" width="2000" height="1320" y="867" clip-path="url(#clipPath2)" stroke="none"/>
    </g>
    <g text-rendering="geometricPrecision" shape-rendering="geometricPrecision" transform="matrix(1.4743,0,0,1.4423,64.2738,16.6355)">
      <g clip-path="url(#clipPath3)">
        <svg xmlns:svg="http://www.w3.org/2000/svg" xmlns:sodipodi="http://sodipodi.sourceforge.net/DTD/sodipodi-0.dtd" xmlns:inkscape="http://www.inkscape.org/namespaces/inkscape" xmlns:dc="http://purl.org/dc/elements/1.1/" xmlns:cc="http://web.resource.org/cc/" xmlns:rdf="http://www.w3.org/1999/02/22-rdf-syntax-ns#" opacity="1" writing-mode="lr-tb" stop-color="rgb(0, 0, 0)" shape-rendering="auto" glyph-orientation-horizontal="0deg" color-profile="auto" lighting-color="rgb(255, 255, 255)" color="rgb(0, 0, 0)" font-weight="400" alignment-baseline="auto" font-style="normal" version="1.0" color-interpolation-filters="linearrgb" text-anchor="start" stroke-linecap="butt" color-interpolation="srgb" font-variant="normal" word-spacing="normal" fill-opacity="1" text-rendering="auto" clip-path="none" text-decoration="none" letter-spacing="normal" glyph-orientation-vertical="auto" display="inline" font-size-adjust="none" overflow="visible" fill="rgb(0, 0, 0)" font-stretch="normal" stroke-dasharray="none" inkscape:version="0.45.1" id="svg1.svg2" stroke-miterlimit="4" stop-opacity="1" color-rendering="auto" font-size="12" sodipodi:docbase="C:\Daten\alberts\projects\yfx" pointer-events="visiblepainted" mask="none" direction="ltr" baseline-shift="baseline" sodipodi:docname="uml_actor.svg" enable-background="accumulate" fill-rule="nonzero" image-rendering="auto" stroke-dashoffset="0" inkscape:output_extension="org.inkscape.output.svg.inkscape" marker-end="none" width="41" clip="auto" cursor="auto" stroke="none" filter="none" visibility="visible" kerning="auto" stroke-width="1" font-family="&quot;Arial&quot;,&quot;Helvetica&quot;,sans-serif" flood-opacity="1" clip-rule="nonzero" src="none" height="68.997391" unicode-bidi="normal" sodipodi:version="0.32" stroke-linejoin="miter" stroke-opacity="1" flood-color="rgb(0, 0, 0)" dominant-baseline="auto" marker-start="none" marker-mid="none">
  <defs id="svg1.defs4">
            <clipPath clipPathUnits="userSpaceOnUse" id="clipPath1">
              <path d="M0 0 L2000 0 L2000 1320 L0 1320 L0 0 Z"/>
            </clipPath>
            <clipPath clipPathUnits="userSpaceOnUse" id="clipPath2">
              <path d="M711 867 L2711 867 L2711 2187 L711 2187 L711 867 Z"/>
            </clipPath>
            <clipPath clipPathUnits="userSpaceOnUse" id="clipPath3">
              <path d="M-43.5962 -11.5344 L1312.9799 -11.5344 L1312.9799 903.699 L-43.5962 903.699 L-43.5962 -11.5344 Z"/>
            </clipPath>
            <clipPath clipPathUnits="userSpaceOnUse" id="clipPath4">
              <path d="M1057 907 L1057 948 L1262 948 L1262 907 Z"/>
            </clipPath>
            <clipPath clipPathUnits="userSpaceOnUse" id="clipPath5">
              <path d="M-642.586 -13.1003 L713.99 -13.1003 L713.99 902.1331 L-642.586 902.1331 L-642.586 -13.1003 Z"/>
            </clipPath>
            <clipPath clipPathUnits="userSpaceOnUse" id="clipPath6">
              <path d="M2078 909 L2078 950 L2383 950 L2383 909 Z"/>
            </clipPath>
          </defs>
  
  <metadata id="svg1.metadata7">
    
  </metadata>
  <g inkscape:groupmode="layer" id="svg1.layer1" transform="translate(-29.5,-42.959476)" inkscape:label="Ebene 1">
    <a id="svg1.a3142" transform="matrix(1.0873906,0,0,1,-4.4741999,0)">
      <path transform="translate(11.586889,5.2908993)" style="fill:none;fill-rule:evenodd;stroke:#000000;stroke-width:1px;stroke-linecap:butt;stroke-linejoin:miter;stroke-opacity:1" sodipodi:cx="38.509369" sodipodi:cy="47.36993" sodipodi:rx="8.5197716" id="svg1.path2160" d="M 47.02914 47.36993 A 8.5197716 9.2013531 0 1 1  29.989597,47.36993 A 8.5197716 9.2013531 0 1 1  47.02914 47.36993 z" sodipodi:ry="9.2013531" sodipodi:type="arc"/>
    </a>
    <path style="fill:none" sodipodi:cx="43.962021" sodipodi:cy="48.392303" d="M 47.71072 48.392303 A 3.7486994 0 0 1 1  40.213321,48.392303 A 3.7486994 0 0 1 1  47.71072 48.392303 z" id="svg1.path3134" sodipodi:rx="3.7486994" sodipodi:ry="0" sodipodi:type="arc"/>
    <path style="fill:none;fill-rule:evenodd;stroke:#000000;stroke-width:1.24319649px;stroke-linecap:butt;stroke-linejoin:miter;stroke-opacity:1" d="M 50,61.33709 C 50,91.363211 50,92.247838 50,92.247838" id="svg1.path3136"/>
    <path style="fill:none;fill-rule:evenodd;stroke:#000000;stroke-width:1px;stroke-linecap:butt;stroke-linejoin:miter;stroke-opacity:1" d="M 69.760668,72.362183 C 69.760668,72.362183 69.760668,72.362183 50.239332,72.362183 C 30.239332,72.362183 30.239332,72.362183 30.239332,72.362183 L 30.239332,72.362183" id="svg1.path3138"/>
    <path style="fill:none;fill-rule:evenodd;stroke:#000000;stroke-width:1px;stroke-linecap:butt;stroke-linejoin:miter;stroke-opacity:1" d="M 30,111.45687 C 30,111.45687 30,111.45687 50,92.013532 C 70,111.45687 70,111.45687 70,111.45687" id="svg1.path3140"/>
  </g>
</svg>
      </g>
    </g>
    <g font-size="30px" stroke-linecap="butt" transform="matrix(1,0,0,1,-711,-867)" text-rendering="geometricPrecision" font-family="sans-serif" shape-rendering="geometricPrecision" stroke-miterlimit="1.45">
      <text x="728.7904" xml:space="preserve" y="1019.1043" clip-path="url(#clipPath2)" stroke="none">mdio_bus.c</text>
    </g>
    <g fill="rgb(255,204,0)" text-rendering="geometricPrecision" shape-rendering="geometricPrecision" transform="matrix(1,0,0,1,-711,-867)" stroke="rgb(255,204,0)">
      <rect x="1058" width="203" height="39" y="908" clip-path="url(#clipPath2)" stroke="none"/>
      <rect x="1057" y="907" clip-path="url(#clipPath2)" fill="yellow" width="1" height="41" stroke="none"/>
      <rect x="1058" y="907" clip-path="url(#clipPath2)" fill="yellow" width="203" height="1" stroke="none"/>
      <rect x="1058" y="947" clip-path="url(#clipPath2)" fill="rgb(178,142,0)" width="204" height="1" stroke="none"/>
      <rect x="1261" y="907" clip-path="url(#clipPath2)" fill="rgb(178,142,0)" width="1" height="40" stroke="none"/>
    </g>
    <g font-size="30px" stroke-linecap="butt" transform="matrix(1,0,0,1,-711,-867)" text-rendering="geometricPrecision" font-family="sans-serif" shape-rendering="geometricPrecision" font-weight="bold" stroke-miterlimit="1.45">
      <text x="1066.1422" xml:space="preserve" y="942.6082" clip-path="url(#clipPath4)" stroke="none">phy_device.c</text>
    </g>
    <g fill="rgb(255,204,153)" text-rendering="geometricPrecision" shape-rendering="geometricPrecision" transform="matrix(1,0,0,1,-711,-867)" stroke="rgb(255,204,153)">
      <rect x="1145.361" width="30" height="243.1191" y="1334.5343" clip-path="url(#clipPath2)" stroke="none"/>
    </g>
    <g text-rendering="geometricPrecision" stroke-miterlimit="1.45" shape-rendering="geometricPrecision" transform="matrix(1,0,0,1,-711,-867)" stroke-linecap="butt">
      <rect fill="none" x="1145.361" width="30" height="243.1191" y="1334.5343" clip-path="url(#clipPath2)"/>
    </g>
    <g fill="white" text-rendering="geometricPrecision" shape-rendering="geometricPrecision" transform="matrix(1,0,0,1,-711,-867)" stroke="white">
      <rect x="796.4562" width="18.0816" height="17.4469" y="2151.8088" clip-path="url(#clipPath2)" stroke="none"/>
    </g>
    <g text-rendering="geometricPrecision" stroke-miterlimit="1.45" shape-rendering="geometricPrecision" transform="matrix(1,0,0,1,-711,-867)" stroke-linecap="butt">
      <rect fill="none" x="796.4562" width="18.0816" height="17.4469" y="2151.8088" clip-path="url(#clipPath2)"/>
    </g>
    <g fill="white" text-rendering="geometricPrecision" shape-rendering="geometricPrecision" transform="matrix(1,0,0,1,-711,-867)" stroke="white">
      <rect x="1151.3202" width="18.0816" height="17.4469" y="2151.8088" clip-path="url(#clipPath2)" stroke="none"/>
    </g>
    <g text-rendering="geometricPrecision" stroke-miterlimit="1.45" shape-rendering="geometricPrecision" transform="matrix(1,0,0,1,-711,-867)" stroke-linecap="butt">
      <rect fill="none" x="1151.3202" width="18.0816" height="17.4469" y="2151.8088" clip-path="url(#clipPath2)"/>
    </g>
    <g fill="rgb(255,204,0)" text-rendering="geometricPrecision" shape-rendering="geometricPrecision" transform="matrix(1,0,0,1,-711,-867)" stroke="rgb(255,204,0)">
      <rect x="790.497" width="30" height="848.0893" y="1167.8216" clip-path="url(#clipPath2)" stroke="none"/>
    </g>
    <g text-rendering="geometricPrecision" stroke-miterlimit="1.45" shape-rendering="geometricPrecision" transform="matrix(1,0,0,1,-711,-867)" stroke-linecap="butt">
      <rect fill="none" x="790.497" width="30" height="848.0893" y="1167.8216" clip-path="url(#clipPath2)"/>
    </g>
    <g fill="rgb(255,204,0)" text-rendering="geometricPrecision" shape-rendering="geometricPrecision" transform="matrix(1,0,0,1,-711,-867)" stroke="rgb(255,204,0)">
      <rect x="805.497" width="30" height="798.0893" y="1195.08" clip-path="url(#clipPath2)" stroke="none"/>
    </g>
    <g text-rendering="geometricPrecision" stroke-miterlimit="1.45" shape-rendering="geometricPrecision" transform="matrix(1,0,0,1,-711,-867)" stroke-linecap="butt">
      <rect fill="none" x="805.497" width="30" height="798.0893" y="1195.08" clip-path="url(#clipPath2)"/>
    </g>
    <g fill="rgb(255,204,0)" text-rendering="geometricPrecision" shape-rendering="geometricPrecision" transform="matrix(1,0,0,1,-711,-867)" stroke="rgb(255,204,0)">
      <rect x="820.497" width="30" height="30" y="1229" clip-path="url(#clipPath2)" stroke="none"/>
    </g>
    <g text-rendering="geometricPrecision" stroke-miterlimit="1.45" shape-rendering="geometricPrecision" transform="matrix(1,0,0,1,-711,-867)" stroke-linecap="butt">
      <rect fill="none" x="820.497" width="30" height="30" y="1229" clip-path="url(#clipPath2)"/>
    </g>
    <g fill="rgb(255,204,0)" text-rendering="geometricPrecision" shape-rendering="geometricPrecision" transform="matrix(1,0,0,1,-711,-867)" stroke="rgb(255,204,0)">
      <rect x="1160.2535" width="30" height="113.2" y="1360.3225" clip-path="url(#clipPath2)" stroke="none"/>
    </g>
    <g text-rendering="geometricPrecision" stroke-miterlimit="1.45" shape-rendering="geometricPrecision" transform="matrix(1,0,0,1,-711,-867)" stroke-linecap="butt">
      <rect fill="none" x="1160.2535" width="30" height="113.2" y="1360.3225" clip-path="url(#clipPath2)"/>
    </g>
    <g fill="rgb(255,204,0)" text-rendering="geometricPrecision" shape-rendering="geometricPrecision" transform="matrix(1,0,0,1,-711,-867)" stroke="rgb(255,204,0)">
      <rect x="820.497" width="30" height="508.1206" y="1289" clip-path="url(#clipPath2)" stroke="none"/>
    </g>
    <g text-rendering="geometricPrecision" stroke-miterlimit="1.45" shape-rendering="geometricPrecision" transform="matrix(1,0,0,1,-711,-867)" stroke-linecap="butt">
      <rect fill="none" x="820.497" width="30" height="508.1206" y="1289" clip-path="url(#clipPath2)"/>
    </g>
    <g fill="rgb(255,204,0)" text-rendering="geometricPrecision" shape-rendering="geometricPrecision" transform="matrix(1,0,0,1,-711,-867)" stroke="rgb(255,204,0)">
      <rect x="1175.361" width="30" height="30" y="1418.7161" clip-path="url(#clipPath2)" stroke="none"/>
    </g>
    <g text-rendering="geometricPrecision" stroke-miterlimit="1.45" shape-rendering="geometricPrecision" transform="matrix(1,0,0,1,-711,-867)" stroke-linecap="butt">
      <rect fill="none" x="1175.361" width="30" height="30" y="1418.7161" clip-path="url(#clipPath2)"/>
    </g>
    <g fill="rgb(255,204,0)" text-rendering="geometricPrecision" shape-rendering="geometricPrecision" transform="matrix(1,0,0,1,-711,-867)" stroke="rgb(255,204,0)">
      <rect x="1160.2535" width="30" height="30" y="1522.5121" clip-path="url(#clipPath2)" stroke="none"/>
    </g>
    <g text-rendering="geometricPrecision" stroke-miterlimit="1.45" shape-rendering="geometricPrecision" transform="matrix(1,0,0,1,-711,-867)" stroke-linecap="butt">
      <rect fill="none" x="1160.2535" width="30" height="30" y="1522.5121" clip-path="url(#clipPath2)"/>
    </g>
    <g fill="rgb(255,204,0)" text-rendering="geometricPrecision" shape-rendering="geometricPrecision" transform="matrix(1,0,0,1,-711,-867)" stroke="rgb(255,204,0)">
      <rect x="835.497" width="30" height="73.0745" y="1615.8449" clip-path="url(#clipPath2)" stroke="none"/>
    </g>
    <g text-rendering="geometricPrecision" stroke-miterlimit="1.45" shape-rendering="geometricPrecision" transform="matrix(1,0,0,1,-711,-867)" stroke-linecap="butt">
      <rect fill="none" x="835.497" width="30" height="73.0745" y="1615.8449" clip-path="url(#clipPath2)"/>
      <text x="902.3296" xml:space="preserve" y="1642.4333" clip-path="url(#clipPath2)" font-family="sans-serif" stroke="none">Walk the list of subnodes of a mdio bus and</text>
      <text x="902.3296" xml:space="preserve" y="1657.1345" clip-path="url(#clipPath2)" font-family="sans-serif" stroke="none">look for a node that matches the phy's address</text>
      <text x="902.3296" xml:space="preserve" y="1671.8357" clip-path="url(#clipPath2)" font-family="sans-serif" stroke="none">with its 'reg' property. If found, set the of_node</text>
      <text x="902.3296" xml:space="preserve" y="1686.5369" clip-path="url(#clipPath2)" font-family="sans-serif" stroke="none">pointer for the phy</text>
    </g>
    <g fill="rgb(255,204,153)" text-rendering="geometricPrecision" shape-rendering="geometricPrecision" transform="matrix(1,0,0,1,-711,-867)" stroke="rgb(255,204,153)">
      <rect x="1145.361" width="30" height="64.1431" y="1721.8605" clip-path="url(#clipPath2)" stroke="none"/>
    </g>
    <g text-rendering="geometricPrecision" stroke-miterlimit="1.45" shape-rendering="geometricPrecision" transform="matrix(1,0,0,1,-711,-867)" stroke-linecap="butt">
      <rect fill="none" x="1145.361" width="30" height="64.1431" y="1721.8605" clip-path="url(#clipPath2)"/>
    </g>
    <g fill="rgb(255,204,0)" text-rendering="geometricPrecision" shape-rendering="geometricPrecision" transform="matrix(1,0,0,1,-711,-867)" stroke="rgb(255,204,0)">
      <rect x="1160.2535" width="30" height="30" y="1745.6562" clip-path="url(#clipPath2)" stroke="none"/>
    </g>
    <g text-rendering="geometricPrecision" stroke-miterlimit="1.45" shape-rendering="geometricPrecision" transform="matrix(1,0,0,1,-711,-867)" stroke-linecap="butt">
      <rect fill="none" x="1160.2535" width="30" height="30" y="1745.6562" clip-path="url(#clipPath2)"/>
    </g>
    <g fill="rgb(255,204,0)" text-rendering="geometricPrecision" shape-rendering="geometricPrecision" transform="matrix(1.4743,0,0,1.4423,947.3645,18.8939)" stroke="rgb(255,204,0)">
      <g clip-path="url(#clipPath5)">
        <svg xmlns:svg="http://www.w3.org/2000/svg" xmlns:sodipodi="http://sodipodi.sourceforge.net/DTD/sodipodi-0.dtd" xmlns:inkscape="http://www.inkscape.org/namespaces/inkscape" xmlns:dc="http://purl.org/dc/elements/1.1/" xmlns:cc="http://web.resource.org/cc/" xmlns:rdf="http://www.w3.org/1999/02/22-rdf-syntax-ns#" opacity="1" writing-mode="lr-tb" stop-color="rgb(0, 0, 0)" shape-rendering="auto" glyph-orientation-horizontal="0deg" color-profile="auto" lighting-color="rgb(255, 255, 255)" color="rgb(0, 0, 0)" font-weight="400" alignment-baseline="auto" font-style="normal" version="1.0" color-interpolation-filters="linearrgb" text-anchor="start" stroke-linecap="butt" color-interpolation="srgb" font-variant="normal" word-spacing="normal" fill-opacity="1" text-rendering="auto" clip-path="none" text-decoration="none" letter-spacing="normal" glyph-orientation-vertical="auto" display="inline" font-size-adjust="none" overflow="visible" fill="rgb(0, 0, 0)" font-stretch="normal" stroke-dasharray="none" inkscape:version="0.45.1" id="svg2.svg2" stroke-miterlimit="4" stop-opacity="1" color-rendering="auto" font-size="12" sodipodi:docbase="C:\Daten\alberts\projects\yfx" pointer-events="visiblepainted" mask="none" direction="ltr" baseline-shift="baseline" sodipodi:docname="uml_actor.svg" enable-background="accumulate" fill-rule="nonzero" image-rendering="auto" stroke-dashoffset="0" inkscape:output_extension="org.inkscape.output.svg.inkscape" marker-end="none" width="41" clip="auto" cursor="auto" stroke="none" filter="none" visibility="visible" kerning="auto" stroke-width="1" font-family="&quot;Arial&quot;,&quot;Helvetica&quot;,sans-serif" flood-opacity="1" clip-rule="nonzero" src="none" height="68.997391" unicode-bidi="normal" sodipodi:version="0.32" stroke-linejoin="miter" stroke-opacity="1" flood-color="rgb(0, 0, 0)" dominant-baseline="auto" marker-start="none" marker-mid="none">
  <defs id="svg2.defs4"/>
  
  <metadata id="svg2.metadata7">
    
  </metadata>
  <g inkscape:groupmode="layer" id="svg2.layer1" transform="translate(-29.5,-42.959476)" inkscape:label="Ebene 1">
    <a id="svg2.a3142" transform="matrix(1.0873906,0,0,1,-4.4741999,0)">
      <path transform="translate(11.586889,5.2908993)" style="fill:none;fill-rule:evenodd;stroke:#000000;stroke-width:1px;stroke-linecap:butt;stroke-linejoin:miter;stroke-opacity:1" sodipodi:cx="38.509369" sodipodi:cy="47.36993" sodipodi:rx="8.5197716" id="svg2.path2160" d="M 47.02914 47.36993 A 8.5197716 9.2013531 0 1 1  29.989597,47.36993 A 8.5197716 9.2013531 0 1 1  47.02914 47.36993 z" sodipodi:ry="9.2013531" sodipodi:type="arc"/>
    </a>
    <path style="fill:none" sodipodi:cx="43.962021" sodipodi:cy="48.392303" d="M 47.71072 48.392303 A 3.7486994 0 0 1 1  40.213321,48.392303 A 3.7486994 0 0 1 1  47.71072 48.392303 z" id="svg2.path3134" sodipodi:rx="3.7486994" sodipodi:ry="0" sodipodi:type="arc"/>
    <path style="fill:none;fill-rule:evenodd;stroke:#000000;stroke-width:1.24319649px;stroke-linecap:butt;stroke-linejoin:miter;stroke-opacity:1" d="M 50,61.33709 C 50,91.363211 50,92.247838 50,92.247838" id="svg2.path3136"/>
    <path style="fill:none;fill-rule:evenodd;stroke:#000000;stroke-width:1px;stroke-linecap:butt;stroke-linejoin:miter;stroke-opacity:1" d="M 69.760668,72.362183 C 69.760668,72.362183 69.760668,72.362183 50.239332,72.362183 C 30.239332,72.362183 30.239332,72.362183 30.239332,72.362183 L 30.239332,72.362183" id="svg2.path3138"/>
    <path style="fill:none;fill-rule:evenodd;stroke:#000000;stroke-width:1px;stroke-linecap:butt;stroke-linejoin:miter;stroke-opacity:1" d="M 30,111.45687 C 30,111.45687 30,111.45687 50,92.013532 C 70,111.45687 70,111.45687 70,111.45687" id="svg2.path3140"/>
  </g>
</svg>
      </g>
    </g>
    <g font-size="30px" stroke-linecap="butt" transform="matrix(1,0,0,1,-711,-867)" text-rendering="geometricPrecision" font-family="sans-serif" shape-rendering="geometricPrecision" stroke-miterlimit="1.45">
      <text x="1498.4875" xml:space="preserve" y="1021.3627" clip-path="url(#clipPath2)" stroke="none">drivers/net/phy/phy_device.c</text>
    </g>
    <g fill="rgb(255,204,0)" text-rendering="geometricPrecision" shape-rendering="geometricPrecision" transform="matrix(1,0,0,1,-711,-867)" stroke="rgb(255,204,0)">
      <rect x="2079" width="303" height="39" y="910" clip-path="url(#clipPath2)" stroke="none"/>
      <rect x="2078" y="909" clip-path="url(#clipPath2)" fill="yellow" width="1" height="41" stroke="none"/>
      <rect x="2079" y="909" clip-path="url(#clipPath2)" fill="yellow" width="303" height="1" stroke="none"/>
      <rect x="2079" y="949" clip-path="url(#clipPath2)" fill="rgb(178,142,0)" width="304" height="1" stroke="none"/>
      <rect x="2382" y="909" clip-path="url(#clipPath2)" fill="rgb(178,142,0)" width="1" height="40" stroke="none"/>
    </g>
    <g font-size="30px" stroke-linecap="butt" transform="matrix(1,0,0,1,-711,-867)" text-rendering="geometricPrecision" font-family="sans-serif" shape-rendering="geometricPrecision" stroke-miterlimit="1.45">
      <text x="2093.5234" xml:space="preserve" y="944.8666" clip-path="url(#clipPath6)" stroke="none">drivers/net/phy/phy.c</text>
    </g>
    <g fill="rgb(255,204,153)" text-rendering="geometricPrecision" shape-rendering="geometricPrecision" transform="matrix(1,0,0,1,-711,-867)" stroke="rgb(255,204,153)">
      <rect x="2216.9219" width="30" height="36.4951" y="1673.7216" clip-path="url(#clipPath2)" stroke="none"/>
    </g>
    <g text-rendering="geometricPrecision" stroke-miterlimit="1.45" shape-rendering="geometricPrecision" transform="matrix(1,0,0,1,-711,-867)" stroke-linecap="butt">
      <rect fill="none" x="2216.9219" width="30" height="36.4951" y="1673.7216" clip-path="url(#clipPath2)"/>
      <text x="2263.4768" font-size="20px" y="1657.076" clip-path="url(#clipPath2)" font-family="sans-serif" stroke="none" xml:space="preserve">queue_delayed_work(</text>
      <text x="2263.4768" font-size="20px" y="1681.578" clip-path="url(#clipPath2)" font-family="sans-serif" stroke="none" xml:space="preserve">system_power_efficient_wq,</text>
      <text x="2263.4768" font-size="20px" y="1706.08" clip-path="url(#clipPath2)" font-family="sans-serif" stroke="none" xml:space="preserve">&amp;phydev-&gt;state_queue, HZ);</text>
    </g>
    <g fill="white" text-rendering="geometricPrecision" shape-rendering="geometricPrecision" transform="matrix(1,0,0,1,-711,-867)" stroke="white">
      <rect x="1679.5469" width="18.0816" height="17.4469" y="2154.0672" clip-path="url(#clipPath2)" stroke="none"/>
    </g>
    <g text-rendering="geometricPrecision" stroke-miterlimit="1.45" shape-rendering="geometricPrecision" transform="matrix(1,0,0,1,-711,-867)" stroke-linecap="butt">
      <rect fill="none" x="1679.5469" width="18.0816" height="17.4469" y="2154.0672" clip-path="url(#clipPath2)"/>
    </g>
    <g fill="white" text-rendering="geometricPrecision" shape-rendering="geometricPrecision" transform="matrix(1,0,0,1,-711,-867)" stroke="white">
      <rect x="2222.8811" width="18.0816" height="17.4469" y="2154.0672" clip-path="url(#clipPath2)" stroke="none"/>
    </g>
    <g text-rendering="geometricPrecision" stroke-miterlimit="1.45" shape-rendering="geometricPrecision" transform="matrix(1,0,0,1,-711,-867)" stroke-linecap="butt">
      <rect fill="none" x="2222.8811" width="18.0816" height="17.4469" y="2154.0672" clip-path="url(#clipPath2)"/>
    </g>
    <g fill="rgb(255,204,0)" text-rendering="geometricPrecision" shape-rendering="geometricPrecision" transform="matrix(1,0,0,1,-711,-867)" stroke="rgb(255,204,0)">
      <rect x="1673.5877" width="30" height="848.0893" y="1170.08" clip-path="url(#clipPath2)" stroke="none"/>
    </g>
    <g text-rendering="geometricPrecision" stroke-miterlimit="1.45" shape-rendering="geometricPrecision" transform="matrix(1,0,0,1,-711,-867)" stroke-linecap="butt">
      <rect fill="none" x="1673.5877" width="30" height="848.0893" y="1170.08" clip-path="url(#clipPath2)"/>
    </g>
    <g fill="rgb(255,204,153)" text-rendering="geometricPrecision" shape-rendering="geometricPrecision" transform="matrix(1,0,0,1,-711,-867)" stroke="rgb(255,204,153)">
      <rect x="1688.5877" width="30" height="798.0893" y="1197.3384" clip-path="url(#clipPath2)" stroke="none"/>
    </g>
    <g text-rendering="geometricPrecision" stroke-miterlimit="1.45" shape-rendering="geometricPrecision" transform="matrix(1,0,0,1,-711,-867)" stroke-linecap="butt">
      <rect fill="none" x="1688.5877" width="30" height="798.0893" y="1197.3384" clip-path="url(#clipPath2)"/>
    </g>
    <g fill="rgb(255,204,0)" text-rendering="geometricPrecision" shape-rendering="geometricPrecision" transform="matrix(1,0,0,1,-711,-867)" stroke="rgb(255,204,0)">
      <rect x="1703.5877" width="30" height="30" y="1231.2584" clip-path="url(#clipPath2)" stroke="none"/>
    </g>
    <g text-rendering="geometricPrecision" stroke-miterlimit="1.45" shape-rendering="geometricPrecision" transform="matrix(1,0,0,1,-711,-867)" stroke-linecap="butt">
      <rect fill="none" x="1703.5877" width="30" height="30" y="1231.2584" clip-path="url(#clipPath2)"/>
    </g>
    <g fill="rgb(255,204,0)" text-rendering="geometricPrecision" shape-rendering="geometricPrecision" transform="matrix(1,0,0,1,-711,-867)" stroke="rgb(255,204,0)">
      <rect x="1703.5877" width="30" height="508.1206" y="1291.2584" clip-path="url(#clipPath2)" stroke="none"/>
    </g>
    <g text-rendering="geometricPrecision" stroke-miterlimit="1.45" shape-rendering="geometricPrecision" transform="matrix(1,0,0,1,-711,-867)" stroke-linecap="butt">
      <rect fill="none" x="1703.5877" width="30" height="508.1206" y="1291.2584" clip-path="url(#clipPath2)"/>
    </g>
    <g fill="rgb(255,204,0)" text-rendering="geometricPrecision" shape-rendering="geometricPrecision" transform="matrix(1,0,0,1,-711,-867)" stroke="rgb(255,204,0)">
      <rect x="1718.5877" width="30" height="373.424" y="1336.7927" clip-path="url(#clipPath2)" stroke="none"/>
    </g>
    <g text-rendering="geometricPrecision" stroke-miterlimit="1.45" shape-rendering="geometricPrecision" transform="matrix(1,0,0,1,-711,-867)" stroke-linecap="butt">
      <rect fill="none" x="1718.5877" width="30" height="373.424" y="1336.7927" clip-path="url(#clipPath2)"/>
    </g>
    <g fill="rgb(255,204,0)" text-rendering="geometricPrecision" shape-rendering="geometricPrecision" transform="matrix(1,0,0,1,-711,-867)" stroke="rgb(255,204,0)">
      <rect x="1734.2954" width="30" height="165.04" y="1388.3568" clip-path="url(#clipPath2)" stroke="none"/>
    </g>
    <g text-rendering="geometricPrecision" stroke-miterlimit="1.45" shape-rendering="geometricPrecision" transform="matrix(1,0,0,1,-711,-867)" stroke-linecap="butt">
      <rect fill="none" x="1734.2954" width="30" height="165.04" y="1388.3568" clip-path="url(#clipPath2)"/>
    </g>
    <g fill="rgb(255,204,0)" text-rendering="geometricPrecision" shape-rendering="geometricPrecision" transform="matrix(1,0,0,1,-711,-867)" stroke="rgb(255,204,0)">
      <rect x="1734.2954" width="30" height="30" y="1599.4979" clip-path="url(#clipPath2)" stroke="none"/>
    </g>
    <g text-rendering="geometricPrecision" stroke-miterlimit="1.45" shape-rendering="geometricPrecision" transform="matrix(1,0,0,1,-711,-867)" stroke-linecap="butt">
      <rect fill="none" x="1734.2954" width="30" height="30" y="1599.4979" clip-path="url(#clipPath2)"/>
    </g>
    <g fill="rgb(255,204,153)" text-rendering="geometricPrecision" shape-rendering="geometricPrecision" transform="matrix(1,0,0,1,-711,-867)" stroke="rgb(255,204,153)">
      <rect x="2216.9219" width="30" height="226.0231" y="1763.639" clip-path="url(#clipPath2)" stroke="none"/>
    </g>
    <g text-rendering="geometricPrecision" stroke-miterlimit="1.45" shape-rendering="geometricPrecision" transform="matrix(1,0,0,1,-711,-867)" stroke-linecap="butt">
      <rect fill="none" x="2216.9219" width="30" height="226.0231" y="1763.639" clip-path="url(#clipPath2)"/>
      <text x="2289.939" font-size="20px" y="1758.4542" clip-path="url(#clipPath2)" font-family="sans-serif" stroke="none" xml:space="preserve">phy_state_machine</text>
    </g>
    <g fill="rgb(255,204,0)" text-rendering="geometricPrecision" shape-rendering="geometricPrecision" transform="matrix(1,0,0,1,-711,-867)" stroke="rgb(255,204,0)">
      <rect x="2231.8144" width="30" height="165.04" y="1801.0664" clip-path="url(#clipPath2)" stroke="none"/>
    </g>
    <g text-rendering="geometricPrecision" stroke-miterlimit="1.45" shape-rendering="geometricPrecision" transform="matrix(1,0,0,1,-711,-867)" stroke-linecap="butt">
      <rect fill="none" x="2231.8144" width="30" height="165.04" y="1801.0664" clip-path="url(#clipPath2)"/>
      <path fill="none" stroke-dasharray="6,2" d="M1160.361 949.1278 L1160.361 1334.5343" clip-path="url(#clipPath2)"/>
      <path fill="none" stroke-dasharray="6,2" d="M805.4969 2015.9109 L805.4969 2151.8088" clip-path="url(#clipPath2)"/>
      <path fill="none" stroke-dasharray="6,2" d="M805.4969 1167.8217 L805.4969 982.9179" clip-path="url(#clipPath2)"/>
      <path fill="none" d="M820.486 1175.08 L872.777 1175.08 L872.777 1203.24 L843.5318 1202.7239" clip-path="url(#clipPath2)"/>
      <path d="M835.533 1202.5826 L847.4429 1207.7937 L844.5316 1202.7416 L847.6194 1197.7953 Z" clip-path="url(#clipPath2)" stroke="none"/>
      <text x="918.8429" font-size="20px" y="1175.6055" clip-path="url(#clipPath2)" font-family="sans-serif" stroke="none" xml:space="preserve">mdiobus_register</text>
      <text x="907.7198" font-size="20px" y="1200.1074" clip-path="url(#clipPath2)" font-family="sans-serif" stroke="none" xml:space="preserve">__mdiobus_register</text>
      <path fill="none" d="M835.49 1216.96 L872.777 1216.96 L872.777 1244 L858.4969 1244" clip-path="url(#clipPath2)"/>
      <path d="M850.4969 1244 L862.4969 1249 L859.4969 1244 L862.4969 1239 Z" clip-path="url(#clipPath2)" stroke="none"/>
      <text x="935.6125" font-size="20px" y="1238.3364" clip-path="url(#clipPath2)" font-family="sans-serif" stroke="none" xml:space="preserve">bus-&gt;reset</text>
      <path fill="none" d="M1175.3855 1344.0784 L1240.7031 1344.7626 L1240.7031 1369.9977 L1198.2804 1369.9977" clip-path="url(#clipPath2)"/>
      <path d="M1190.2804 1369.9977 L1202.2804 1374.9977 L1199.2804 1369.9977 L1202.2804 1364.9977 Z" clip-path="url(#clipPath2)" stroke="none"/>
      <text x="1281.1818" font-size="20px" y="1361.3535" clip-path="url(#clipPath2)" font-family="sans-serif" stroke="none" xml:space="preserve">get_phy_id</text>
      <path fill="none" d="M835.5068 1273.2843 L872.777 1273.2843 L872.777 1294.9001 L858.5284 1294.9001" clip-path="url(#clipPath2)"/>
      <path d="M850.5284 1294.9001 L862.5284 1299.9001 L859.5284 1294.9001 L862.5284 1289.9001 Z" clip-path="url(#clipPath2)" stroke="none"/>
      <text x="897.0753" font-size="20px" y="1279.8663" clip-path="url(#clipPath2)" font-family="sans-serif" stroke="none" xml:space="preserve">for(;;)</text>
      <text x="897.0753" font-size="20px" y="1304.3683" clip-path="url(#clipPath2)" font-family="sans-serif" stroke="none" xml:space="preserve">mdiobus_scan</text>
      <path fill="none" stroke-dasharray="6,2" d="M1145.3372 1572.7874 L858.5093 1572.7874" clip-path="url(#clipPath2)"/>
      <path stroke-dasharray="6,2" d="M850.5093 1572.7874 L862.5093 1577.7874 L859.5093 1572.7874 L862.5093 1567.7874 Z" clip-path="url(#clipPath2)" stroke="none"/>
      <path fill="none" d="M850.4604 1345.8307 L1137.3679 1344.9348" clip-path="url(#clipPath2)"/>
      <path d="M1145.3679 1344.9099 L1133.3524 1339.9473 L1136.3679 1344.938 L1133.3835 1349.9473 Z" clip-path="url(#clipPath2)" stroke="none"/>
      <text x="918.6156" font-size="20px" y="1337.9357" clip-path="url(#clipPath2)" font-family="sans-serif" stroke="none" xml:space="preserve">get_phy_device</text>
      <path fill="none" d="M1190.2533 1387.418 L1240.0765 1387.418 L1240.0765 1433.7161 L1213.361 1433.7161" clip-path="url(#clipPath2)"/>
      <path d="M1205.361 1433.7161 L1217.361 1438.7161 L1214.361 1433.7161 L1217.361 1428.7161 Z" clip-path="url(#clipPath2)" stroke="none"/>
      <text x="1278.5283" font-size="20px" y="1401.5316" clip-path="url(#clipPath2)" font-family="sans-serif" stroke="none" xml:space="preserve">mdiobus_read</text>
      <text x="1278.5283" font-size="20px" y="1426.0336" clip-path="url(#clipPath2)" font-family="sans-serif" stroke="none" xml:space="preserve">{</text>
      <text x="1278.5283" font-size="20px" y="1450.5355" clip-path="url(#clipPath2)" font-family="sans-serif" stroke="none" xml:space="preserve">    bus-&gt;read()</text>
      <text x="1278.5283" font-size="20px" y="1475.0375" clip-path="url(#clipPath2)" font-family="sans-serif" stroke="none" xml:space="preserve">}</text>
      <path fill="none" d="M1175.3796 1497.5625 L1238.4381 1497.5625 L1238.4381 1537.5121 L1198.2534 1537.5121" clip-path="url(#clipPath2)"/>
      <path d="M1190.2534 1537.5121 L1202.2534 1542.5121 L1199.2534 1537.5121 L1202.2534 1532.5121 Z" clip-path="url(#clipPath2)" stroke="none"/>
      <text x="1268.4835" font-size="20px" y="1527.0989" clip-path="url(#clipPath2)" font-family="sans-serif" stroke="none" xml:space="preserve">phy_device_create</text>
      <path fill="none" d="M850.512 1594.3408 L911.2506 1594.3408 L911.2506 1626.5688 L873.492 1626.5688" clip-path="url(#clipPath2)"/>
      <path d="M865.492 1626.5688 L877.492 1631.5688 L874.492 1626.5688 L877.492 1621.5688 Z" clip-path="url(#clipPath2)" stroke="none"/>
      <text x="919.045" font-size="20px" y="1610.5375" clip-path="url(#clipPath2)" font-family="sans-serif" stroke="none" xml:space="preserve">of_mdiobus_link_phydev</text>
      <path fill="none" d="M850.5211 1721.8606 L1137.3456 1721.8606" clip-path="url(#clipPath2)"/>
      <path d="M1145.3456 1721.8606 L1133.3456 1716.8606 L1136.3456 1721.8606 L1133.3456 1726.8606 Z" clip-path="url(#clipPath2)" stroke="none"/>
      <text x="899.559" font-size="20px" y="1713.6606" clip-path="url(#clipPath2)" font-family="sans-serif" stroke="none" xml:space="preserve">phy_device_register</text>
      <path fill="none" stroke-dasharray="6,2" d="M1160.361 1577.6534 L1160.361 1721.8606" clip-path="url(#clipPath2)"/>
      <path fill="none" stroke-dasharray="6,2" d="M1160.361 1786.0037 L1160.361 2151.8088" clip-path="url(#clipPath2)"/>
      <path fill="none" stroke-dasharray="6,2" d="M1145.3726 1779.8352 L858.5049 1779.8352" clip-path="url(#clipPath2)"/>
      <path stroke-dasharray="6,2" d="M850.5049 1779.8352 L862.5049 1784.8352 L859.5049 1779.8352 L862.5049 1774.8352 Z" clip-path="url(#clipPath2)" stroke="none"/>
      <path fill="none" d="M1175.391 1729.9012 L1236.1259 1729.9012 L1236.1259 1760.6562 L1198.2534 1760.6562" clip-path="url(#clipPath2)"/>
      <path d="M1190.2534 1760.6562 L1202.2534 1765.6562 L1199.2534 1760.6562 L1202.2534 1755.6562 Z" clip-path="url(#clipPath2)" stroke="none"/>
      <text x="1252.9932" font-size="20px" y="1746.7847" clip-path="url(#clipPath2)" font-family="sans-serif" stroke="none" xml:space="preserve">device_add(&amp;phydev-&gt;dev)</text>
      <path fill="none" stroke-dasharray="6,2" d="M2231.9219 951.4099 L2231.9219 1673.7216" clip-path="url(#clipPath2)"/>
      <path fill="none" stroke-dasharray="6,2" d="M1688.5876 985.1919 L1688.5876 1170.08" clip-path="url(#clipPath2)"/>
      <path fill="none" stroke-dasharray="6,2" d="M1688.5876 2018.1693 L1688.5876 2154.0671" clip-path="url(#clipPath2)"/>
      <path fill="none" d="M1703.5767 1177.3384 L1755.8677 1177.3384 L1755.8677 1205.4984 L1726.6224 1204.9823" clip-path="url(#clipPath2)"/>
      <path d="M1718.6237 1204.8411 L1730.5336 1210.0521 L1727.6223 1205 L1730.7101 1200.0537 Z" clip-path="url(#clipPath2)" stroke="none"/>
      <text x="1821.9287" font-size="20px" y="1190.1149" clip-path="url(#clipPath2)" font-family="sans-serif" stroke="none" xml:space="preserve">phy_connect</text>
      <path fill="none" d="M1718.5807 1219.2184 L1755.8677 1219.2184 L1755.8677 1246.2584 L1741.5876 1246.2584" clip-path="url(#clipPath2)"/>
      <path d="M1733.5876 1246.2584 L1745.5876 1251.2584 L1742.5876 1246.2584 L1745.5876 1241.2584 Z" clip-path="url(#clipPath2)" stroke="none"/>
      <text x="1780.2531" font-size="20px" y="1241.5948" clip-path="url(#clipPath2)" font-family="sans-serif" stroke="none" xml:space="preserve">bus_find_device_by_name</text>
      <path fill="none" d="M1718.5975 1275.5427 L1755.8677 1275.5427 L1755.8677 1307.3986 L1741.6217 1307.3986" clip-path="url(#clipPath2)"/>
      <path d="M1733.6217 1307.3986 L1745.6217 1312.3986 L1742.6217 1307.3986 L1745.6217 1302.3986 Z" clip-path="url(#clipPath2)" stroke="none"/>
      <text x="1784.1648" font-size="20px" y="1298.2955" clip-path="url(#clipPath2)" font-family="sans-serif" stroke="none" xml:space="preserve">phy_connect_direct</text>
      <path fill="none" d="M1733.6034 1325.2574 L1775.8947 1325.2574 L1775.8947 1351.7927 L1756.6028 1351.7927" clip-path="url(#clipPath2)"/>
      <path d="M1748.6028 1351.7927 L1760.6028 1356.7927 L1757.6028 1351.7927 L1760.6028 1346.7927 Z" clip-path="url(#clipPath2)" stroke="none"/>
      <text x="1813.0975" font-size="20px" y="1346.3815" clip-path="url(#clipPath2)" font-family="sans-serif" stroke="none" xml:space="preserve">phy_attach_direct</text>
      <path fill="none" stroke-dasharray="6,2" d="M2216.9463 1703.092 L1756.585 1703.092" clip-path="url(#clipPath2)"/>
      <path stroke-dasharray="6,2" d="M1748.585 1703.092 L1760.585 1708.092 L1757.585 1703.092 L1760.585 1698.092 Z" clip-path="url(#clipPath2)" stroke="none"/>
      <path fill="none" d="M1748.5957 1678.91 L2208.916 1678.91" clip-path="url(#clipPath2)"/>
      <path d="M2216.916 1678.91 L2204.916 1673.91 L2207.916 1678.91 L2204.916 1683.91 Z" clip-path="url(#clipPath2)" stroke="none"/>
      <text x="1905.5802" font-size="20px" y="1659.1594" clip-path="url(#clipPath2)" font-family="sans-serif" stroke="none" xml:space="preserve">phy_start_machine</text>
      <path fill="none" d="M1748.5992 1366.2174 L1807.8947 1366.2174 L1807.8947 1396.3604 L1772.3192 1396.3604" clip-path="url(#clipPath2)"/>
      <path d="M1764.3192 1396.3604 L1776.3192 1401.3604 L1773.3192 1396.3604 L1776.3192 1391.3604 Z" clip-path="url(#clipPath2)" stroke="none"/>
      <text x="1817.7129" font-size="16px" y="1409.7358" clip-path="url(#clipPath2)" font-family="sans-serif" stroke="none" xml:space="preserve">/* if there is no driver,</text>
      <text x="1817.7129" font-size="16px" y="1429.3374" clip-path="url(#clipPath2)" font-family="sans-serif" stroke="none" xml:space="preserve">we should use the genphy driver. */</text>
      <text x="1817.7129" font-size="16px" y="1448.939" clip-path="url(#clipPath2)" font-family="sans-serif" stroke="none" xml:space="preserve">if (!d-&gt;driver) {</text>
      <text x="1817.7129" font-size="16px" y="1468.5405" clip-path="url(#clipPath2)" font-family="sans-serif" stroke="none" xml:space="preserve">  d-&gt;driver=</text>
      <text x="1817.7129" font-size="16px" y="1488.1421" clip-path="url(#clipPath2)" font-family="sans-serif" stroke="none" xml:space="preserve">&amp;genphy_driver[GENPHY_DRV_1G].driver;</text>
      <text x="1817.7129" font-size="16px" y="1507.7437" clip-path="url(#clipPath2)" font-family="sans-serif" stroke="none" xml:space="preserve">  d-&gt;driver-&gt;probe(d);</text>
      <text x="1817.7129" font-size="16px" y="1527.3452" clip-path="url(#clipPath2)" font-family="sans-serif" stroke="none" xml:space="preserve">}</text>
      <path fill="none" d="M1748.6161 1574.6979 L1805.0259 1574.6979 L1805.0259 1614.4979 L1772.2954 1614.4979" clip-path="url(#clipPath2)"/>
      <path d="M1764.2954 1614.4979 L1776.2954 1619.4979 L1773.2954 1614.4979 L1776.2954 1609.4979 Z" clip-path="url(#clipPath2)" stroke="none"/>
      <text x="1843.6536" font-size="20px" y="1577.9524" clip-path="url(#clipPath2)" font-family="sans-serif" stroke="none" xml:space="preserve">phy_prepare_link {</text>
      <text x="1843.6536" font-size="20px" y="1602.4543" clip-path="url(#clipPath2)" font-family="sans-serif" stroke="none" xml:space="preserve">  phydev-&gt;adjust_link = handler;</text>
      <text x="1843.6536" font-size="20px" y="1626.9563" clip-path="url(#clipPath2)" font-family="sans-serif" stroke="none" xml:space="preserve">}</text>
      <path fill="none" stroke-dasharray="6,2" d="M2231.9219 1710.2167 L2231.9219 1763.6389" clip-path="url(#clipPath2)"/>
      <path fill="none" stroke-dasharray="6,2" d="M2231.9219 1989.6621 L2231.9219 2154.0671" clip-path="url(#clipPath2)"/>
      <path fill="none" d="M2246.9138 1781.0664 L2307.6868 1781.0664 L2307.6868 1807.8271 L2269.8127 1807.8271" clip-path="url(#clipPath2)"/>
      <path d="M2261.8127 1807.8271 L2273.8127 1812.8271 L2270.8127 1807.8271 L2273.8127 1802.8271 Z" clip-path="url(#clipPath2)" stroke="none"/>
      <text x="2356.6287" font-size="16px" y="1801.0076" clip-path="url(#clipPath2)" font-family="sans-serif" stroke="none" xml:space="preserve">case PHY_NOLINK:</text>
      <text x="2356.6287" font-size="16px" y="1820.6091" clip-path="url(#clipPath2)" font-family="sans-serif" stroke="none" xml:space="preserve">  phy_read_status(phydev)</text>
      <text x="2356.6287" font-size="16px" y="1840.2107" clip-path="url(#clipPath2)" font-family="sans-serif" stroke="none" xml:space="preserve">  if (phydev-&gt;link) {</text>
      <text x="2356.6287" font-size="16px" y="1859.8123" clip-path="url(#clipPath2)" font-family="sans-serif" stroke="none" xml:space="preserve">    phydev-&gt;state=PHY_RUNNING;</text>
      <text x="2356.6287" font-size="16px" y="1879.4138" clip-path="url(#clipPath2)" font-family="sans-serif" stroke="none" xml:space="preserve">    netif_carrier_on(phydev-&gt;attached_dev);</text>
      <text x="2356.6287" font-size="16px" y="1899.0154" clip-path="url(#clipPath2)" font-family="sans-serif" stroke="none" xml:space="preserve">    phydev-&gt;adjust_link(phydev-&gt;attached_dev);</text>
      <text x="2356.6287" font-size="16px" y="1918.6169" clip-path="url(#clipPath2)" font-family="sans-serif" stroke="none" xml:space="preserve">  }</text>
    </g>
  </g>
</svg>
