<?xml version="1.0" encoding="UTF-8"?><svg xmlns="http://www.w3.org/2000/svg" xmlns:xlink="http://www.w3.org/1999/xlink" fill-opacity="1" color-rendering="auto" color-interpolation="auto" text-rendering="auto" stroke="black" stroke-linecap="square" width="1335" stroke-miterlimit="10" shape-rendering="auto" stroke-opacity="1" fill="black" stroke-dasharray="none" font-weight="normal" stroke-width="1" height="602" font-family="'Dialog'" font-style="normal" stroke-linejoin="miter" font-size="12px" stroke-dashoffset="0" image-rendering="auto">
  <!--Generated by ySVG 2.5-->
  <defs id="genericDefs"/>
  <g>
    <defs id="defs1">
      <clipPath clipPathUnits="userSpaceOnUse" id="clipPath1">
        <path d="M0 0 L1335 0 L1335 602 L0 602 L0 0 Z"/>
      </clipPath>
      <clipPath clipPathUnits="userSpaceOnUse" id="clipPath2">
        <path d="M105 164 L1440 164 L1440 766 L105 766 L105 164 Z"/>
      </clipPath>
    </defs>
    <g fill="white" text-rendering="geometricPrecision" shape-rendering="geometricPrecision" transform="translate(-105,-164)" stroke="white">
      <rect x="105" width="1335" height="602" y="164" clip-path="url(#clipPath2)" stroke="none"/>
    </g>
    <g fill="rgb(153,204,0)" text-rendering="geometricPrecision" shape-rendering="geometricPrecision" transform="matrix(1,0,0,1,-105,-164)" stroke="rgb(153,204,0)">
      <rect x="310" width="150" height="30" y="179.4" clip-path="url(#clipPath2)" stroke="none"/>
    </g>
    <g font-size="16px" stroke-linecap="butt" transform="matrix(1,0,0,1,-105,-164)" text-rendering="geometricPrecision" font-family="'Ubuntu Mono'" shape-rendering="geometricPrecision" stroke-miterlimit="1.45">
      <text x="345.022" xml:space="preserve" y="199.6771" clip-path="url(#clipPath2)" stroke="none">spi_master</text>
      <rect fill="none" x="310" width="150" height="30" y="179.4" clip-path="url(#clipPath2)"/>
    </g>
    <g fill="rgb(153,204,255)" text-rendering="geometricPrecision" shape-rendering="geometricPrecision" transform="matrix(1,0,0,1,-105,-164)" stroke="rgb(153,204,255)">
      <rect x="310" width="150" height="30" y="209.4" clip-path="url(#clipPath2)" stroke="none"/>
    </g>
    <g font-size="16px" stroke-linecap="butt" transform="matrix(1,0,0,1,-105,-164)" text-rendering="geometricPrecision" font-family="'Ubuntu Mono'" shape-rendering="geometricPrecision" stroke-miterlimit="1.45">
      <text x="373.0066" xml:space="preserve" y="229.6771" clip-path="url(#clipPath2)" stroke="none">dev</text>
      <rect fill="none" x="310" width="150" height="30" y="209.4" clip-path="url(#clipPath2)"/>
    </g>
    <g fill="rgb(153,204,255)" text-rendering="geometricPrecision" shape-rendering="geometricPrecision" transform="matrix(1,0,0,1,-105,-164)" stroke="rgb(153,204,255)">
      <rect x="310" width="150" height="30" y="269.4" clip-path="url(#clipPath2)" stroke="none"/>
    </g>
    <g font-size="16px" stroke-linecap="butt" transform="matrix(1,0,0,1,-105,-164)" text-rendering="geometricPrecision" font-family="'Ubuntu Mono'" shape-rendering="geometricPrecision" stroke-miterlimit="1.45">
      <text x="325.033" xml:space="preserve" y="289.6771" clip-path="url(#clipPath2)" stroke="none">list_head queue</text>
      <rect fill="none" x="310" width="150" height="30" y="269.4" clip-path="url(#clipPath2)"/>
    </g>
    <g fill="rgb(153,204,255)" text-rendering="geometricPrecision" shape-rendering="geometricPrecision" transform="matrix(1,0,0,1,-105,-164)" stroke="rgb(153,204,255)">
      <rect x="310" width="150" height="30" y="239.4" clip-path="url(#clipPath2)" stroke="none"/>
    </g>
    <g font-size="16px" stroke-linecap="butt" transform="matrix(1,0,0,1,-105,-164)" text-rendering="geometricPrecision" font-family="'Ubuntu Mono'" shape-rendering="geometricPrecision" stroke-miterlimit="1.45">
      <text x="329.0308" xml:space="preserve" y="259.6771" clip-path="url(#clipPath2)" stroke="none">list_head list</text>
      <rect fill="none" x="310" width="150" height="30" y="239.4" clip-path="url(#clipPath2)"/>
    </g>
    <g fill="rgb(153,204,0)" text-rendering="geometricPrecision" shape-rendering="geometricPrecision" transform="matrix(1,0,0,1,-105,-164)" stroke="rgb(153,204,0)">
      <rect x="544" width="96.4" height="30" y="329.4" clip-path="url(#clipPath2)" stroke="none"/>
    </g>
    <g font-size="16px" stroke-linecap="butt" transform="matrix(1,0,0,1,-105,-164)" text-rendering="geometricPrecision" font-family="'Ubuntu Mono'" shape-rendering="geometricPrecision" stroke-miterlimit="1.45">
      <text x="548.2242" xml:space="preserve" y="349.6771" clip-path="url(#clipPath2)" stroke="none">spi_message</text>
      <rect fill="none" x="544" width="96.4" height="30" y="329.4" clip-path="url(#clipPath2)"/>
    </g>
    <g fill="rgb(153,204,255)" text-rendering="geometricPrecision" shape-rendering="geometricPrecision" transform="matrix(1,0,0,1,-105,-164)" stroke="rgb(153,204,255)">
      <rect x="544" width="96.4" height="30" y="419.4" clip-path="url(#clipPath2)" stroke="none"/>
    </g>
    <g font-size="16px" stroke-linecap="butt" transform="matrix(1,0,0,1,-105,-164)" text-rendering="geometricPrecision" font-family="'Ubuntu Mono'" shape-rendering="geometricPrecision" stroke-miterlimit="1.45">
      <text x="560.2176" xml:space="preserve" y="439.6771" clip-path="url(#clipPath2)" stroke="none">transfer</text>
      <rect fill="none" x="544" width="96.4" height="30" y="419.4" clip-path="url(#clipPath2)"/>
    </g>
    <g fill="rgb(153,204,255)" text-rendering="geometricPrecision" shape-rendering="geometricPrecision" transform="matrix(1,0,0,1,-105,-164)" stroke="rgb(153,204,255)">
      <rect x="544" width="96.4" height="30" y="359.4" clip-path="url(#clipPath2)" stroke="none"/>
    </g>
    <g font-size="16px" stroke-linecap="butt" transform="matrix(1,0,0,1,-105,-164)" text-rendering="geometricPrecision" font-family="'Ubuntu Mono'" shape-rendering="geometricPrecision" stroke-miterlimit="1.45">
      <text x="572.211" xml:space="preserve" y="379.6771" clip-path="url(#clipPath2)" stroke="none">queue</text>
      <rect fill="none" x="544" width="96.4" height="30" y="359.4" clip-path="url(#clipPath2)"/>
    </g>
    <g fill="rgb(153,204,255)" text-rendering="geometricPrecision" shape-rendering="geometricPrecision" transform="matrix(1,0,0,1,-105,-164)" stroke="rgb(153,204,255)">
      <rect x="544" width="96.4" height="30" y="389.4" clip-path="url(#clipPath2)" stroke="none"/>
    </g>
    <g font-size="16px" stroke-linecap="butt" transform="matrix(1,0,0,1,-105,-164)" text-rendering="geometricPrecision" font-family="'Ubuntu Mono'" shape-rendering="geometricPrecision" stroke-miterlimit="1.45">
      <text x="556.2198" xml:space="preserve" y="409.6771" clip-path="url(#clipPath2)" stroke="none">*complete</text>
      <rect fill="none" x="544" width="96.4" height="30" y="389.4" clip-path="url(#clipPath2)"/>
    </g>
    <g fill="rgb(153,204,0)" text-rendering="geometricPrecision" shape-rendering="geometricPrecision" transform="matrix(1,0,0,1,-105,-164)" stroke="rgb(153,204,0)">
      <rect x="735" width="96.4" height="30" y="558.3396" clip-path="url(#clipPath2)" stroke="none"/>
    </g>
    <g font-size="14px" stroke-linecap="butt" transform="matrix(1,0,0,1,-105,-164)" text-rendering="geometricPrecision" font-family="'Ubuntu Mono'" shape-rendering="geometricPrecision" stroke-miterlimit="1.45">
      <text x="741.2231" xml:space="preserve" y="577.957" clip-path="url(#clipPath2)" stroke="none">spi_transfer</text>
      <rect fill="none" x="735" width="96.4" height="30" y="558.3396" clip-path="url(#clipPath2)"/>
    </g>
    <g fill="rgb(153,204,255)" text-rendering="geometricPrecision" shape-rendering="geometricPrecision" transform="matrix(1,0,0,1,-105,-164)" stroke="rgb(153,204,255)">
      <rect x="735" width="96.4" height="30" y="618.3396" clip-path="url(#clipPath2)" stroke="none"/>
    </g>
    <g font-size="14px" stroke-linecap="butt" transform="matrix(1,0,0,1,-105,-164)" text-rendering="geometricPrecision" font-family="'Ubuntu Mono'" shape-rendering="geometricPrecision" stroke-miterlimit="1.45">
      <text x="758.7134" xml:space="preserve" y="637.957" clip-path="url(#clipPath2)" stroke="none">*tx_buf</text>
      <rect fill="none" x="735" width="96.4" height="30" y="618.3396" clip-path="url(#clipPath2)"/>
    </g>
    <g fill="rgb(153,204,255)" text-rendering="geometricPrecision" shape-rendering="geometricPrecision" transform="matrix(1,0,0,1,-105,-164)" stroke="rgb(153,204,255)">
      <rect x="735" width="96.4" height="30" y="588.3396" clip-path="url(#clipPath2)" stroke="none"/>
    </g>
    <g font-size="14px" stroke-linecap="butt" transform="matrix(1,0,0,1,-105,-164)" text-rendering="geometricPrecision" font-family="'Ubuntu Mono'" shape-rendering="geometricPrecision" stroke-miterlimit="1.45">
      <text x="737.725" xml:space="preserve" y="607.957" clip-path="url(#clipPath2)" stroke="none">transfer_list</text>
      <rect fill="none" x="735" width="96.4" height="30" y="588.3396" clip-path="url(#clipPath2)"/>
    </g>
    <g fill="rgb(153,204,255)" text-rendering="geometricPrecision" shape-rendering="geometricPrecision" transform="matrix(1,0,0,1,-105,-164)" stroke="rgb(153,204,255)">
      <rect x="735" width="96.4" height="30" y="648.3396" clip-path="url(#clipPath2)" stroke="none"/>
    </g>
    <g font-size="14px" stroke-linecap="butt" transform="matrix(1,0,0,1,-105,-164)" text-rendering="geometricPrecision" font-family="'Ubuntu Mono'" shape-rendering="geometricPrecision" stroke-miterlimit="1.45">
      <text x="758.7134" xml:space="preserve" y="667.957" clip-path="url(#clipPath2)" stroke="none">*rx_buf</text>
      <rect fill="none" x="735" width="96.4" height="30" y="648.3396" clip-path="url(#clipPath2)"/>
    </g>
    <g fill="rgb(153,204,0)" text-rendering="geometricPrecision" shape-rendering="geometricPrecision" transform="matrix(1,0,0,1,-105,-164)" stroke="rgb(153,204,0)">
      <rect x="744" width="96.4" height="30" y="329.4" clip-path="url(#clipPath2)" stroke="none"/>
    </g>
    <g font-size="16px" stroke-linecap="butt" transform="matrix(1,0,0,1,-105,-164)" text-rendering="geometricPrecision" font-family="'Ubuntu Mono'" shape-rendering="geometricPrecision" stroke-miterlimit="1.45">
      <text x="748.2242" xml:space="preserve" y="349.6771" clip-path="url(#clipPath2)" stroke="none">spi_message</text>
      <rect fill="none" x="744" width="96.4" height="30" y="329.4" clip-path="url(#clipPath2)"/>
    </g>
    <g fill="rgb(153,204,255)" text-rendering="geometricPrecision" shape-rendering="geometricPrecision" transform="matrix(1,0,0,1,-105,-164)" stroke="rgb(153,204,255)">
      <rect x="744" width="96.4" height="30" y="419.4" clip-path="url(#clipPath2)" stroke="none"/>
    </g>
    <g font-size="16px" stroke-linecap="butt" transform="matrix(1,0,0,1,-105,-164)" text-rendering="geometricPrecision" font-family="'Ubuntu Mono'" shape-rendering="geometricPrecision" stroke-miterlimit="1.45">
      <text x="760.2176" xml:space="preserve" y="439.6771" clip-path="url(#clipPath2)" stroke="none">transfer</text>
      <rect fill="none" x="744" width="96.4" height="30" y="419.4" clip-path="url(#clipPath2)"/>
    </g>
    <g fill="rgb(153,204,255)" text-rendering="geometricPrecision" shape-rendering="geometricPrecision" transform="matrix(1,0,0,1,-105,-164)" stroke="rgb(153,204,255)">
      <rect x="744" width="96.4" height="30" y="359.4" clip-path="url(#clipPath2)" stroke="none"/>
    </g>
    <g font-size="16px" stroke-linecap="butt" transform="matrix(1,0,0,1,-105,-164)" text-rendering="geometricPrecision" font-family="'Ubuntu Mono'" shape-rendering="geometricPrecision" stroke-miterlimit="1.45">
      <text x="772.211" xml:space="preserve" y="379.6771" clip-path="url(#clipPath2)" stroke="none">queue</text>
      <rect fill="none" x="744" width="96.4" height="30" y="359.4" clip-path="url(#clipPath2)"/>
    </g>
    <g fill="rgb(153,204,255)" text-rendering="geometricPrecision" shape-rendering="geometricPrecision" transform="matrix(1,0,0,1,-105,-164)" stroke="rgb(153,204,255)">
      <rect x="744" width="96.4" height="30" y="389.4" clip-path="url(#clipPath2)" stroke="none"/>
    </g>
    <g font-size="16px" stroke-linecap="butt" transform="matrix(1,0,0,1,-105,-164)" text-rendering="geometricPrecision" font-family="'Ubuntu Mono'" shape-rendering="geometricPrecision" stroke-miterlimit="1.45">
      <text x="756.2198" xml:space="preserve" y="409.6771" clip-path="url(#clipPath2)" stroke="none">*complete</text>
      <rect fill="none" x="744" width="96.4" height="30" y="389.4" clip-path="url(#clipPath2)"/>
    </g>
    <g fill="rgb(153,204,0)" text-rendering="geometricPrecision" shape-rendering="geometricPrecision" transform="matrix(1,0,0,1,-105,-164)" stroke="rgb(153,204,0)">
      <rect x="973" width="96.4" height="30" y="558.3396" clip-path="url(#clipPath2)" stroke="none"/>
    </g>
    <g font-size="14px" stroke-linecap="butt" transform="matrix(1,0,0,1,-105,-164)" text-rendering="geometricPrecision" font-family="'Ubuntu Mono'" shape-rendering="geometricPrecision" stroke-miterlimit="1.45">
      <text x="979.2231" xml:space="preserve" y="577.957" clip-path="url(#clipPath2)" stroke="none">spi_transfer</text>
      <rect fill="none" x="973" width="96.4" height="30" y="558.3396" clip-path="url(#clipPath2)"/>
    </g>
    <g fill="rgb(153,204,255)" text-rendering="geometricPrecision" shape-rendering="geometricPrecision" transform="matrix(1,0,0,1,-105,-164)" stroke="rgb(153,204,255)">
      <rect x="973" width="96.4" height="30" y="618.3396" clip-path="url(#clipPath2)" stroke="none"/>
    </g>
    <g font-size="14px" stroke-linecap="butt" transform="matrix(1,0,0,1,-105,-164)" text-rendering="geometricPrecision" font-family="'Ubuntu Mono'" shape-rendering="geometricPrecision" stroke-miterlimit="1.45">
      <text x="996.7134" xml:space="preserve" y="637.957" clip-path="url(#clipPath2)" stroke="none">*tx_buf</text>
      <rect fill="none" x="973" width="96.4" height="30" y="618.3396" clip-path="url(#clipPath2)"/>
    </g>
    <g fill="rgb(153,204,255)" text-rendering="geometricPrecision" shape-rendering="geometricPrecision" transform="matrix(1,0,0,1,-105,-164)" stroke="rgb(153,204,255)">
      <rect x="973" width="96.4" height="30" y="588.3396" clip-path="url(#clipPath2)" stroke="none"/>
    </g>
    <g font-size="14px" stroke-linecap="butt" transform="matrix(1,0,0,1,-105,-164)" text-rendering="geometricPrecision" font-family="'Ubuntu Mono'" shape-rendering="geometricPrecision" stroke-miterlimit="1.45">
      <text x="975.725" xml:space="preserve" y="607.957" clip-path="url(#clipPath2)" stroke="none">transfer_list</text>
      <rect fill="none" x="973" width="96.4" height="30" y="588.3396" clip-path="url(#clipPath2)"/>
    </g>
    <g fill="rgb(153,204,255)" text-rendering="geometricPrecision" shape-rendering="geometricPrecision" transform="matrix(1,0,0,1,-105,-164)" stroke="rgb(153,204,255)">
      <rect x="973" width="96.4" height="30" y="648.3396" clip-path="url(#clipPath2)" stroke="none"/>
    </g>
    <g font-size="14px" stroke-linecap="butt" transform="matrix(1,0,0,1,-105,-164)" text-rendering="geometricPrecision" font-family="'Ubuntu Mono'" shape-rendering="geometricPrecision" stroke-miterlimit="1.45">
      <text x="996.7134" xml:space="preserve" y="667.957" clip-path="url(#clipPath2)" stroke="none">*rx_buf</text>
      <rect fill="none" x="973" width="96.4" height="30" y="648.3396" clip-path="url(#clipPath2)"/>
    </g>
    <g fill="rgb(153,204,0)" text-rendering="geometricPrecision" shape-rendering="geometricPrecision" transform="matrix(1,0,0,1,-105,-164)" stroke="rgb(153,204,0)">
      <rect x="1139" width="96.4" height="30" y="558.3396" clip-path="url(#clipPath2)" stroke="none"/>
    </g>
    <g font-size="14px" stroke-linecap="butt" transform="matrix(1,0,0,1,-105,-164)" text-rendering="geometricPrecision" font-family="'Ubuntu Mono'" shape-rendering="geometricPrecision" stroke-miterlimit="1.45">
      <text x="1145.223" xml:space="preserve" y="577.957" clip-path="url(#clipPath2)" stroke="none">spi_transfer</text>
      <rect fill="none" x="1139" width="96.4" height="30" y="558.3396" clip-path="url(#clipPath2)"/>
    </g>
    <g fill="rgb(153,204,255)" text-rendering="geometricPrecision" shape-rendering="geometricPrecision" transform="matrix(1,0,0,1,-105,-164)" stroke="rgb(153,204,255)">
      <rect x="1139" width="96.4" height="30" y="618.3396" clip-path="url(#clipPath2)" stroke="none"/>
    </g>
    <g font-size="14px" stroke-linecap="butt" transform="matrix(1,0,0,1,-105,-164)" text-rendering="geometricPrecision" font-family="'Ubuntu Mono'" shape-rendering="geometricPrecision" stroke-miterlimit="1.45">
      <text x="1162.7135" xml:space="preserve" y="637.957" clip-path="url(#clipPath2)" stroke="none">*tx_buf</text>
      <rect fill="none" x="1139" width="96.4" height="30" y="618.3396" clip-path="url(#clipPath2)"/>
    </g>
    <g fill="rgb(153,204,255)" text-rendering="geometricPrecision" shape-rendering="geometricPrecision" transform="matrix(1,0,0,1,-105,-164)" stroke="rgb(153,204,255)">
      <rect x="1139" width="96.4" height="30" y="588.3396" clip-path="url(#clipPath2)" stroke="none"/>
    </g>
    <g font-size="14px" stroke-linecap="butt" transform="matrix(1,0,0,1,-105,-164)" text-rendering="geometricPrecision" font-family="'Ubuntu Mono'" shape-rendering="geometricPrecision" stroke-miterlimit="1.45">
      <text x="1141.725" xml:space="preserve" y="607.957" clip-path="url(#clipPath2)" stroke="none">transfer_list</text>
      <rect fill="none" x="1139" width="96.4" height="30" y="588.3396" clip-path="url(#clipPath2)"/>
    </g>
    <g fill="rgb(153,204,255)" text-rendering="geometricPrecision" shape-rendering="geometricPrecision" transform="matrix(1,0,0,1,-105,-164)" stroke="rgb(153,204,255)">
      <rect x="1139" width="96.4" height="30" y="648.3396" clip-path="url(#clipPath2)" stroke="none"/>
    </g>
    <g font-size="14px" stroke-linecap="butt" transform="matrix(1,0,0,1,-105,-164)" text-rendering="geometricPrecision" font-family="'Ubuntu Mono'" shape-rendering="geometricPrecision" stroke-miterlimit="1.45">
      <text x="1162.7135" xml:space="preserve" y="667.957" clip-path="url(#clipPath2)" stroke="none">*rx_buf</text>
      <rect fill="none" x="1139" width="96.4" height="30" y="648.3396" clip-path="url(#clipPath2)"/>
    </g>
    <g fill="rgb(153,204,0)" text-rendering="geometricPrecision" shape-rendering="geometricPrecision" transform="matrix(1,0,0,1,-105,-164)" stroke="rgb(153,204,0)">
      <rect x="962.8" width="96.4" height="30" y="329.4" clip-path="url(#clipPath2)" stroke="none"/>
    </g>
    <g font-size="16px" stroke-linecap="butt" transform="matrix(1,0,0,1,-105,-164)" text-rendering="geometricPrecision" font-family="'Ubuntu Mono'" shape-rendering="geometricPrecision" stroke-miterlimit="1.45">
      <text x="999.0066" xml:space="preserve" y="349.6771" clip-path="url(#clipPath2)" stroke="none">...</text>
      <rect fill="none" x="962.8" width="96.4" height="30" y="329.4" clip-path="url(#clipPath2)"/>
    </g>
    <g fill="rgb(153,204,255)" text-rendering="geometricPrecision" shape-rendering="geometricPrecision" transform="matrix(1,0,0,1,-105,-164)" stroke="rgb(153,204,255)">
      <rect x="962.8" width="96.4" height="30" y="419.4" clip-path="url(#clipPath2)" stroke="none"/>
    </g>
    <g font-size="16px" stroke-linecap="butt" transform="matrix(1,0,0,1,-105,-164)" text-rendering="geometricPrecision" font-family="'Ubuntu Mono'" shape-rendering="geometricPrecision" stroke-miterlimit="1.45">
      <text x="999.0066" xml:space="preserve" y="439.6771" clip-path="url(#clipPath2)" stroke="none">...</text>
      <rect fill="none" x="962.8" width="96.4" height="30" y="419.4" clip-path="url(#clipPath2)"/>
    </g>
    <g fill="rgb(153,204,255)" text-rendering="geometricPrecision" shape-rendering="geometricPrecision" transform="matrix(1,0,0,1,-105,-164)" stroke="rgb(153,204,255)">
      <rect x="962.8" width="96.4" height="30" y="359.4" clip-path="url(#clipPath2)" stroke="none"/>
    </g>
    <g font-size="16px" stroke-linecap="butt" transform="matrix(1,0,0,1,-105,-164)" text-rendering="geometricPrecision" font-family="'Ubuntu Mono'" shape-rendering="geometricPrecision" stroke-miterlimit="1.45">
      <text x="999.0066" xml:space="preserve" y="379.6771" clip-path="url(#clipPath2)" stroke="none">...</text>
      <rect fill="none" x="962.8" width="96.4" height="30" y="359.4" clip-path="url(#clipPath2)"/>
    </g>
    <g fill="rgb(153,204,255)" text-rendering="geometricPrecision" shape-rendering="geometricPrecision" transform="matrix(1,0,0,1,-105,-164)" stroke="rgb(153,204,255)">
      <rect x="962.8" width="96.4" height="30" y="389.4" clip-path="url(#clipPath2)" stroke="none"/>
    </g>
    <g font-size="16px" stroke-linecap="butt" transform="matrix(1,0,0,1,-105,-164)" text-rendering="geometricPrecision" font-family="'Ubuntu Mono'" shape-rendering="geometricPrecision" stroke-miterlimit="1.45">
      <text x="999.0066" xml:space="preserve" y="409.6771" clip-path="url(#clipPath2)" stroke="none">...</text>
      <rect fill="none" x="962.8" width="96.4" height="30" y="389.4" clip-path="url(#clipPath2)"/>
    </g>
    <g fill="rgb(153,204,0)" text-rendering="geometricPrecision" shape-rendering="geometricPrecision" transform="matrix(1,0,0,1,-105,-164)" stroke="rgb(153,204,0)">
      <rect x="1305" width="96.4" height="30" y="558.3396" clip-path="url(#clipPath2)" stroke="none"/>
    </g>
    <g font-size="14px" stroke-linecap="butt" transform="matrix(1,0,0,1,-105,-164)" text-rendering="geometricPrecision" font-family="'Ubuntu Mono'" shape-rendering="geometricPrecision" stroke-miterlimit="1.45">
      <text x="1342.7058" xml:space="preserve" y="577.957" clip-path="url(#clipPath2)" stroke="none">...</text>
      <rect fill="none" x="1305" width="96.4" height="30" y="558.3396" clip-path="url(#clipPath2)"/>
    </g>
    <g fill="rgb(153,204,255)" text-rendering="geometricPrecision" shape-rendering="geometricPrecision" transform="matrix(1,0,0,1,-105,-164)" stroke="rgb(153,204,255)">
      <rect x="1305" width="96.4" height="30" y="618.3396" clip-path="url(#clipPath2)" stroke="none"/>
    </g>
    <g font-size="14px" stroke-linecap="butt" transform="matrix(1,0,0,1,-105,-164)" text-rendering="geometricPrecision" font-family="'Ubuntu Mono'" shape-rendering="geometricPrecision" stroke-miterlimit="1.45">
      <text x="1342.7058" xml:space="preserve" y="637.957" clip-path="url(#clipPath2)" stroke="none">...</text>
      <rect fill="none" x="1305" width="96.4" height="30" y="618.3396" clip-path="url(#clipPath2)"/>
    </g>
    <g fill="rgb(153,204,255)" text-rendering="geometricPrecision" shape-rendering="geometricPrecision" transform="matrix(1,0,0,1,-105,-164)" stroke="rgb(153,204,255)">
      <rect x="1305" width="96.4" height="30" y="588.3396" clip-path="url(#clipPath2)" stroke="none"/>
    </g>
    <g font-size="14px" stroke-linecap="butt" transform="matrix(1,0,0,1,-105,-164)" text-rendering="geometricPrecision" font-family="'Ubuntu Mono'" shape-rendering="geometricPrecision" stroke-miterlimit="1.45">
      <text x="1342.7058" xml:space="preserve" y="607.957" clip-path="url(#clipPath2)" stroke="none">...</text>
      <rect fill="none" x="1305" width="96.4" height="30" y="588.3396" clip-path="url(#clipPath2)"/>
    </g>
    <g fill="rgb(153,204,255)" text-rendering="geometricPrecision" shape-rendering="geometricPrecision" transform="matrix(1,0,0,1,-105,-164)" stroke="rgb(153,204,255)">
      <rect x="1305" width="96.4" height="30" y="648.3396" clip-path="url(#clipPath2)" stroke="none"/>
    </g>
    <g font-size="14px" stroke-linecap="butt" transform="matrix(1,0,0,1,-105,-164)" text-rendering="geometricPrecision" font-family="'Ubuntu Mono'" shape-rendering="geometricPrecision" stroke-miterlimit="1.45">
      <text x="1342.7058" xml:space="preserve" y="667.957" clip-path="url(#clipPath2)" stroke="none">...</text>
      <rect fill="none" x="1305" width="96.4" height="30" y="648.3396" clip-path="url(#clipPath2)"/>
    </g>
    <g fill="rgb(153,204,0)" text-rendering="geometricPrecision" shape-rendering="geometricPrecision" transform="matrix(1,0,0,1,-105,-164)" stroke="rgb(153,204,0)">
      <rect x="568.6" width="150" height="30" y="179.4" clip-path="url(#clipPath2)" stroke="none"/>
    </g>
    <g font-size="16px" stroke-linecap="butt" transform="matrix(1,0,0,1,-105,-164)" text-rendering="geometricPrecision" font-family="'Ubuntu Mono'" shape-rendering="geometricPrecision" stroke-miterlimit="1.45">
      <text x="603.6219" xml:space="preserve" y="199.6771" clip-path="url(#clipPath2)" stroke="none">spi_master</text>
      <rect fill="none" x="568.6" width="150" height="30" y="179.4" clip-path="url(#clipPath2)"/>
    </g>
    <g fill="rgb(153,204,255)" text-rendering="geometricPrecision" shape-rendering="geometricPrecision" transform="matrix(1,0,0,1,-105,-164)" stroke="rgb(153,204,255)">
      <rect x="568.6" width="150" height="30" y="209.4" clip-path="url(#clipPath2)" stroke="none"/>
    </g>
    <g font-size="16px" stroke-linecap="butt" transform="matrix(1,0,0,1,-105,-164)" text-rendering="geometricPrecision" font-family="'Ubuntu Mono'" shape-rendering="geometricPrecision" stroke-miterlimit="1.45">
      <text x="631.6066" xml:space="preserve" y="229.6771" clip-path="url(#clipPath2)" stroke="none">dev</text>
      <rect fill="none" x="568.6" width="150" height="30" y="209.4" clip-path="url(#clipPath2)"/>
    </g>
    <g fill="rgb(153,204,255)" text-rendering="geometricPrecision" shape-rendering="geometricPrecision" transform="matrix(1,0,0,1,-105,-164)" stroke="rgb(153,204,255)">
      <rect x="568.6" width="150" height="30" y="269.4" clip-path="url(#clipPath2)" stroke="none"/>
    </g>
    <g font-size="16px" stroke-linecap="butt" transform="matrix(1,0,0,1,-105,-164)" text-rendering="geometricPrecision" font-family="'Ubuntu Mono'" shape-rendering="geometricPrecision" stroke-miterlimit="1.45">
      <text x="623.611" xml:space="preserve" y="289.6771" clip-path="url(#clipPath2)" stroke="none">queue</text>
      <rect fill="none" x="568.6" width="150" height="30" y="269.4" clip-path="url(#clipPath2)"/>
    </g>
    <g fill="rgb(153,204,255)" text-rendering="geometricPrecision" shape-rendering="geometricPrecision" transform="matrix(1,0,0,1,-105,-164)" stroke="rgb(153,204,255)">
      <rect x="568.6" width="150" height="30" y="239.4" clip-path="url(#clipPath2)" stroke="none"/>
    </g>
    <g font-size="16px" stroke-linecap="butt" transform="matrix(1,0,0,1,-105,-164)" text-rendering="geometricPrecision" font-family="'Ubuntu Mono'" shape-rendering="geometricPrecision" stroke-miterlimit="1.45">
      <text x="587.6307" xml:space="preserve" y="259.6771" clip-path="url(#clipPath2)" stroke="none">list_head list</text>
      <rect fill="none" x="568.6" width="150" height="30" y="239.4" clip-path="url(#clipPath2)"/>
    </g>
    <g fill="rgb(153,204,0)" text-rendering="geometricPrecision" shape-rendering="geometricPrecision" transform="matrix(1,0,0,1,-105,-164)" stroke="rgb(153,204,0)">
      <rect x="122.8" width="118.4" height="30" y="239.4" clip-path="url(#clipPath2)" stroke="none"/>
    </g>
    <g font-size="16px" stroke-linecap="butt" transform="matrix(1,0,0,1,-105,-164)" text-rendering="geometricPrecision" font-family="'Ubuntu Mono'" shape-rendering="geometricPrecision" stroke-miterlimit="1.45">
      <text x="122.033" xml:space="preserve" y="259.6771" clip-path="url(#clipPath2)" stroke="none">spi_master_list</text>
      <rect fill="none" x="122.8" width="118.4" height="30" y="239.4" clip-path="url(#clipPath2)"/>
      <text x="422.5818" font-size="24px" y="463.0059" clip-path="url(#clipPath2)" fill="blue" stroke="none" xml:space="preserve">spi_pump_message</text>
      <text x="422.5818" font-size="24px" y="486.9927" clip-path="url(#clipPath2)" fill="blue" stroke="none" xml:space="preserve">in spi core</text>
      <text x="422.5818" font-size="24px" y="510.9795" clip-path="url(#clipPath2)" fill="blue" stroke="none" xml:space="preserve">scheduled by kthread</text>
    </g>
    <g stroke-linecap="butt" transform="matrix(1,0,0,1,-105,-164)" fill="blue" text-rendering="geometricPrecision" shape-rendering="geometricPrecision" stroke-dasharray="12,4" stroke="blue" stroke-width="2" stroke-miterlimit="1.45">
      <rect fill="none" x="416.5818" width="670.4" height="206.25" y="314.8073" clip-path="url(#clipPath2)"/>
    </g>
    <g stroke-linecap="butt" font-size="24px" transform="matrix(1,0,0,1,-105,-164)" fill="blue" text-rendering="geometricPrecision" font-family="'Ubuntu Mono'" shape-rendering="geometricPrecision" stroke="blue" stroke-miterlimit="1.45">
      <text x="623.625" xml:space="preserve" y="716.15" clip-path="url(#clipPath2)" stroke="none">transfer_one_message</text>
      <text x="623.625" xml:space="preserve" y="740.1368" clip-path="url(#clipPath2)" stroke="none">in spi master driver</text>
    </g>
    <g stroke-linecap="butt" transform="matrix(1,0,0,1,-105,-164)" fill="blue" text-rendering="geometricPrecision" shape-rendering="geometricPrecision" stroke-dasharray="12,4" stroke="blue" stroke-width="2" stroke-miterlimit="1.45">
      <rect fill="none" x="617.625" width="807.15" height="213.75" y="536.4646" clip-path="url(#clipPath2)"/>
    </g>
    <g fill="rgb(153,204,0)" text-rendering="geometricPrecision" shape-rendering="geometricPrecision" transform="matrix(1,0,0,1,-105,-164)" stroke="rgb(153,204,0)">
      <rect x="1305" width="96.4" height="30" y="329.4" clip-path="url(#clipPath2)" stroke="none"/>
    </g>
    <g font-size="16px" stroke-linecap="butt" transform="matrix(1,0,0,1,-105,-164)" text-rendering="geometricPrecision" font-family="'Ubuntu Mono'" shape-rendering="geometricPrecision" stroke-miterlimit="1.45">
      <text x="1341.2065" xml:space="preserve" y="349.6771" clip-path="url(#clipPath2)" stroke="none">...</text>
      <rect fill="none" x="1305" width="96.4" height="30" y="329.4" clip-path="url(#clipPath2)"/>
    </g>
    <g fill="rgb(153,204,255)" text-rendering="geometricPrecision" shape-rendering="geometricPrecision" transform="matrix(1,0,0,1,-105,-164)" stroke="rgb(153,204,255)">
      <rect x="1305" width="96.4" height="30" y="419.4" clip-path="url(#clipPath2)" stroke="none"/>
    </g>
    <g font-size="16px" stroke-linecap="butt" transform="matrix(1,0,0,1,-105,-164)" text-rendering="geometricPrecision" font-family="'Ubuntu Mono'" shape-rendering="geometricPrecision" stroke-miterlimit="1.45">
      <text x="1341.2065" xml:space="preserve" y="439.6771" clip-path="url(#clipPath2)" stroke="none">...</text>
      <rect fill="none" x="1305" width="96.4" height="30" y="419.4" clip-path="url(#clipPath2)"/>
    </g>
    <g fill="rgb(153,204,255)" text-rendering="geometricPrecision" shape-rendering="geometricPrecision" transform="matrix(1,0,0,1,-105,-164)" stroke="rgb(153,204,255)">
      <rect x="1305" width="96.4" height="30" y="359.4" clip-path="url(#clipPath2)" stroke="none"/>
    </g>
    <g font-size="16px" stroke-linecap="butt" transform="matrix(1,0,0,1,-105,-164)" text-rendering="geometricPrecision" font-family="'Ubuntu Mono'" shape-rendering="geometricPrecision" stroke-miterlimit="1.45">
      <text x="1341.2065" xml:space="preserve" y="379.6771" clip-path="url(#clipPath2)" stroke="none">...</text>
      <rect fill="none" x="1305" width="96.4" height="30" y="359.4" clip-path="url(#clipPath2)"/>
    </g>
    <g fill="rgb(153,204,255)" text-rendering="geometricPrecision" shape-rendering="geometricPrecision" transform="matrix(1,0,0,1,-105,-164)" stroke="rgb(153,204,255)">
      <rect x="1305" width="96.4" height="30" y="389.4" clip-path="url(#clipPath2)" stroke="none"/>
    </g>
    <g font-size="16px" stroke-linecap="butt" transform="matrix(1,0,0,1,-105,-164)" text-rendering="geometricPrecision" font-family="'Ubuntu Mono'" shape-rendering="geometricPrecision" stroke-miterlimit="1.45">
      <text x="1341.2065" xml:space="preserve" y="409.6771" clip-path="url(#clipPath2)" stroke="none">...</text>
      <rect fill="none" x="1305" width="96.4" height="30" y="389.4" clip-path="url(#clipPath2)"/>
      <path fill="none" d="M459.9782 276.82 L508.3024 276.82 L508.3024 367.7 L535.9955 367.7" clip-path="url(#clipPath2)"/>
      <path d="M543.9955 367.7 L531.9955 362.7 L534.9955 367.7 L531.9955 372.7 Z" stroke="none" clip-path="url(#clipPath2)"/>
      <path fill="none" d="M543.978 379.0152 L495.336 379.0152 L495.336 291.3608 L467.985 291.3608" clip-path="url(#clipPath2)"/>
      <path d="M459.985 291.3608 L471.985 296.3608 L468.985 291.3608 L471.985 286.3608 Z" stroke="none" clip-path="url(#clipPath2)"/>
      <path fill="none" d="M640.3867 426.0766 L701.2 426.0766 L701.2 595.0162 L727.0082 595.0162" clip-path="url(#clipPath2)"/>
      <path d="M735.0082 595.0162 L723.0082 590.0162 L726.0082 595.0162 L723.0082 600.0162 Z" stroke="none" clip-path="url(#clipPath2)"/>
      <path fill="none" d="M734.9611 608.7788 L686.8 608.7788 L686.8 439.8392 L648.3773 439.8392" clip-path="url(#clipPath2)"/>
      <path d="M640.3773 439.8392 L652.3773 444.8392 L649.3773 439.8392 L652.3773 434.8392 Z" stroke="none" clip-path="url(#clipPath2)"/>
      <path fill="none" d="M640.3762 366.2686 L735.9663 366.2686" clip-path="url(#clipPath2)"/>
      <path d="M743.9663 366.2686 L731.9663 361.2686 L734.9663 366.2686 L731.9663 371.2686 Z" stroke="none" clip-path="url(#clipPath2)"/>
      <path fill="none" d="M743.9865 380.1182 L648.3943 380.1182" clip-path="url(#clipPath2)"/>
      <path d="M640.3943 380.1182 L652.3943 385.1182 L649.3943 380.1182 L652.3943 375.1182 Z" stroke="none" clip-path="url(#clipPath2)"/>
      <path fill="none" d="M840.3952 428.2078 L924.6 428.2078 L924.6 595.9058 L964.9823 595.9058" clip-path="url(#clipPath2)"/>
      <path d="M972.9823 595.9058 L960.9823 590.9058 L963.9823 595.9058 L960.9823 600.9058 Z" stroke="none" clip-path="url(#clipPath2)"/>
      <path fill="none" d="M972.9894 608.337 L908.8912 608.337 L908.8912 439.9222 L848.4258 439.9222" clip-path="url(#clipPath2)"/>
      <path d="M840.4258 439.9222 L852.4258 444.9222 L849.4258 439.9222 L852.4258 434.9222 Z" stroke="none" clip-path="url(#clipPath2)"/>
      <path fill="none" d="M1069.4189 595.6743 L1131.0197 595.6743" clip-path="url(#clipPath2)"/>
      <path d="M1139.0197 595.6743 L1127.0197 590.6743 L1130.0197 595.6743 L1127.0197 600.6743 Z" stroke="none" clip-path="url(#clipPath2)"/>
      <path fill="none" d="M1138.9811 607.4708 L1077.4006 607.4708" clip-path="url(#clipPath2)"/>
      <path d="M1069.4006 607.4708 L1081.4006 612.4708 L1078.4006 607.4708 L1081.4006 602.4708 Z" stroke="none" clip-path="url(#clipPath2)"/>
      <path fill="none" d="M840.3919 367.3286 L954.8292 367.3286" clip-path="url(#clipPath2)"/>
      <path d="M962.8292 367.3286 L950.8292 362.3286 L953.8292 367.3286 L950.8292 372.3286 Z" stroke="none" clip-path="url(#clipPath2)"/>
      <path fill="none" d="M962.7981 379.6166 L848.3744 379.6166" clip-path="url(#clipPath2)"/>
      <path d="M840.3744 379.6166 L852.3744 384.6166 L849.3744 379.6166 L852.3744 374.6166 Z" stroke="none" clip-path="url(#clipPath2)"/>
      <path fill="none" d="M1235.4089 595.6086 L1297.0176 595.6086" clip-path="url(#clipPath2)"/>
      <path d="M1305.0176 595.6086 L1293.0176 590.6086 L1296.0176 595.6086 L1293.0176 600.6086 Z" stroke="none" clip-path="url(#clipPath2)"/>
      <path fill="none" d="M1304.9648 608.9206 L1243.3947 608.9206" clip-path="url(#clipPath2)"/>
      <path d="M1235.3947 608.9206 L1247.3947 613.9206 L1244.3947 608.9206 L1247.3947 603.9206 Z" stroke="none" clip-path="url(#clipPath2)"/>
      <path fill="none" d="M460.0036 247.5006 L560.6351 247.5006" clip-path="url(#clipPath2)"/>
      <path d="M568.6351 247.5006 L556.6351 242.5006 L559.6351 247.5006 L556.6351 252.5006 Z" stroke="none" clip-path="url(#clipPath2)"/>
      <path fill="none" d="M568.6263 261.3246 L468.0323 261.3246" clip-path="url(#clipPath2)"/>
      <path d="M460.0323 261.3246 L472.0323 266.3246 L469.0323 261.3246 L472.0323 256.3246 Z" stroke="none" clip-path="url(#clipPath2)"/>
      <path fill="none" d="M309.9975 259.8446 L249.1798 259.8446" clip-path="url(#clipPath2)"/>
      <path d="M241.1798 259.8446 L253.1798 264.8446 L250.1798 259.8446 L253.1798 254.8446 Z" stroke="none" clip-path="url(#clipPath2)"/>
      <path fill="none" d="M241.2046 247.5566 L302.0092 247.5566" clip-path="url(#clipPath2)"/>
      <path d="M310.0092 247.5566 L298.0092 242.5566 L301.0092 247.5566 L298.0092 252.5566 Z" stroke="none" clip-path="url(#clipPath2)"/>
    </g>
    <g stroke-linecap="round" transform="matrix(1,0,0,1,-105,-164)" stroke-dashoffset="2" text-rendering="geometricPrecision" shape-rendering="geometricPrecision" stroke-dasharray="0,16" stroke-width="4" stroke-miterlimit="1.45">
      <path fill="none" d="M1070.2 374.4 L1294 374.4" clip-path="url(#clipPath2)"/>
      <path d="M1059.2 374.4 L1075.7 381.275 L1071.575 374.4 L1075.7 367.525 Z" clip-path="url(#clipPath2)" stroke="none"/>
      <path d="M1305 374.4 L1288.5 367.525 L1292.625 374.4 L1288.5 381.275 Z" clip-path="url(#clipPath2)" stroke="none"/>
    </g>
    <g stroke-linecap="butt" font-size="20px" transform="matrix(1,0,0,1,-105,-164)" fill="blue" text-rendering="geometricPrecision" font-family="'Ubuntu Mono'" shape-rendering="geometricPrecision" stroke="blue" font-weight="bold" stroke-miterlimit="1.45">
      <text x="1168.0714" xml:space="preserve" y="331.8541" clip-path="url(#clipPath2)" stroke="none">add by </text>
      <text x="1108.1044" xml:space="preserve" y="351.8431" clip-path="url(#clipPath2)" stroke="none">spi_queued_transfer</text>
    </g>
  </g>
</svg>
