<?xml version="1.0" encoding="UTF-8"?><svg xmlns="http://www.w3.org/2000/svg" xmlns:xlink="http://www.w3.org/1999/xlink" fill-opacity="1" color-rendering="auto" color-interpolation="auto" text-rendering="auto" stroke="black" stroke-linecap="square" width="960" stroke-miterlimit="10" shape-rendering="auto" stroke-opacity="1" fill="black" stroke-dasharray="none" font-weight="normal" stroke-width="1" height="818" font-family="'Dialog'" font-style="normal" stroke-linejoin="miter" font-size="12px" stroke-dashoffset="0" image-rendering="auto">
  <!--Generated by ySVG 2.5-->
  <defs id="genericDefs"/>
  <g>
    <defs id="defs1">
      <clipPath clipPathUnits="userSpaceOnUse" id="clipPath1">
        <path d="M0 0 L960 0 L960 818 L0 818 L0 0 Z"/>
      </clipPath>
      <clipPath clipPathUnits="userSpaceOnUse" id="clipPath2">
        <path d="M110 202 L1070 202 L1070 1020 L110 1020 L110 202 Z"/>
      </clipPath>
    </defs>
    <g fill="white" text-rendering="geometricPrecision" shape-rendering="geometricPrecision" transform="translate(-110,-202)" stroke="white">
      <rect x="110" width="960" height="818" y="202" clip-path="url(#clipPath2)" stroke="none"/>
    </g>
    <g fill="rgb(153,204,0)" text-rendering="geometricPrecision" shape-rendering="geometricPrecision" transform="matrix(1,0,0,1,-110,-202)" stroke="rgb(153,204,0)">
      <rect x="285" width="150" height="30" y="248" clip-path="url(#clipPath2)" stroke="none"/>
    </g>
    <g font-size="16px" stroke-linecap="butt" transform="matrix(1,0,0,1,-110,-202)" text-rendering="geometricPrecision" font-family="'Ubuntu Mono'" shape-rendering="geometricPrecision" stroke-miterlimit="1.45">
      <text x="320.022" xml:space="preserve" y="268.2771" clip-path="url(#clipPath2)" stroke="none">tty_driver</text>
      <rect fill="none" x="285" width="150" height="30" y="248" clip-path="url(#clipPath2)"/>
    </g>
    <g fill="rgb(153,204,255)" text-rendering="geometricPrecision" shape-rendering="geometricPrecision" transform="matrix(1,0,0,1,-110,-202)" stroke="rgb(153,204,255)">
      <rect x="285" width="150" height="30" y="278" clip-path="url(#clipPath2)" stroke="none"/>
    </g>
    <g font-size="16px" stroke-linecap="butt" transform="matrix(1,0,0,1,-110,-202)" text-rendering="geometricPrecision" font-family="'Ubuntu Mono'" shape-rendering="geometricPrecision" stroke-miterlimit="1.45">
      <text x="300.033" xml:space="preserve" y="298.2771" clip-path="url(#clipPath2)" stroke="none">*tty_operations</text>
      <rect fill="none" x="285" width="150" height="30" y="278" clip-path="url(#clipPath2)"/>
    </g>
    <g fill="rgb(153,204,255)" text-rendering="geometricPrecision" shape-rendering="geometricPrecision" transform="matrix(1,0,0,1,-110,-202)" stroke="rgb(153,204,255)">
      <rect x="285" width="150" height="30" y="308" clip-path="url(#clipPath2)" stroke="none"/>
    </g>
    <g font-size="16px" stroke-linecap="butt" transform="matrix(1,0,0,1,-110,-202)" text-rendering="geometricPrecision" font-family="'Ubuntu Mono'" shape-rendering="geometricPrecision" stroke-miterlimit="1.45">
      <text x="308.0286" xml:space="preserve" y="328.2771" clip-path="url(#clipPath2)" stroke="none">*driver_state</text>
      <rect fill="none" x="285" width="150" height="30" y="308" clip-path="url(#clipPath2)"/>
    </g>
    <g fill="rgb(153,204,255)" text-rendering="geometricPrecision" shape-rendering="geometricPrecision" transform="matrix(1,0,0,1,-110,-202)" stroke="rgb(153,204,255)">
      <rect x="285" width="150" height="30" y="338" clip-path="url(#clipPath2)" stroke="none"/>
    </g>
    <g font-size="16px" stroke-linecap="butt" transform="matrix(1,0,0,1,-110,-202)" text-rendering="geometricPrecision" font-family="'Ubuntu Mono'" shape-rendering="geometricPrecision" stroke-miterlimit="1.45">
      <text x="324.0198" xml:space="preserve" y="358.2771" clip-path="url(#clipPath2)" stroke="none">list_head</text>
      <rect fill="none" x="285" width="150" height="30" y="338" clip-path="url(#clipPath2)"/>
    </g>
    <g fill="rgb(153,204,0)" text-rendering="geometricPrecision" shape-rendering="geometricPrecision" transform="matrix(1,0,0,1,-110,-202)" stroke="rgb(153,204,0)">
      <rect x="541.2298" width="100" height="30" y="267" clip-path="url(#clipPath2)" stroke="none"/>
    </g>
    <g font-size="16px" stroke-linecap="butt" transform="matrix(1,0,0,1,-110,-202)" text-rendering="geometricPrecision" font-family="'Ubuntu Mono'" shape-rendering="geometricPrecision" stroke-miterlimit="1.45">
      <text x="547.254" xml:space="preserve" y="287.2771" clip-path="url(#clipPath2)" stroke="none">uart_driver</text>
      <rect fill="none" x="541.2298" width="100" height="30" y="267" clip-path="url(#clipPath2)"/>
    </g>
    <g fill="rgb(153,204,255)" text-rendering="geometricPrecision" shape-rendering="geometricPrecision" transform="matrix(1,0,0,1,-110,-202)" stroke="rgb(153,204,255)">
      <rect x="541.2298" width="100" height="30" y="297" clip-path="url(#clipPath2)" stroke="none"/>
    </g>
    <g font-size="16px" stroke-linecap="butt" transform="matrix(1,0,0,1,-110,-202)" text-rendering="geometricPrecision" font-family="'Ubuntu Mono'" shape-rendering="geometricPrecision" stroke-miterlimit="1.45">
      <text x="567.243" xml:space="preserve" y="317.2771" clip-path="url(#clipPath2)" stroke="none">*state</text>
      <rect fill="none" x="541.2298" width="100" height="30" y="297" clip-path="url(#clipPath2)"/>
    </g>
    <g fill="rgb(153,204,255)" text-rendering="geometricPrecision" shape-rendering="geometricPrecision" transform="matrix(1,0,0,1,-110,-202)" stroke="rgb(153,204,255)">
      <rect x="541.2298" width="100" height="30" y="327" clip-path="url(#clipPath2)" stroke="none"/>
    </g>
    <g font-size="16px" stroke-linecap="butt" transform="matrix(1,0,0,1,-110,-202)" text-rendering="geometricPrecision" font-family="'Ubuntu Mono'" shape-rendering="geometricPrecision" stroke-miterlimit="1.45">
      <text x="547.254" xml:space="preserve" y="347.2771" clip-path="url(#clipPath2)" stroke="none">*tty_driver</text>
      <rect fill="none" x="541.2298" width="100" height="30" y="327" clip-path="url(#clipPath2)"/>
    </g>
    <g fill="rgb(153,204,255)" text-rendering="geometricPrecision" shape-rendering="geometricPrecision" transform="matrix(1,0,0,1,-110,-202)" stroke="rgb(153,204,255)">
      <rect x="781" width="30" height="30" y="336" clip-path="url(#clipPath2)" stroke="none"/>
    </g>
    <g font-size="16px" stroke-linecap="butt" transform="matrix(1,0,0,1,-110,-202)" text-rendering="geometricPrecision" font-family="'Ubuntu Mono'" shape-rendering="geometricPrecision" stroke-miterlimit="1.45">
      <text x="792.0022" xml:space="preserve" y="356.2771" clip-path="url(#clipPath2)" stroke="none">1</text>
      <rect fill="none" x="781" width="30" height="30" y="336" clip-path="url(#clipPath2)"/>
    </g>
    <g fill="rgb(153,204,255)" text-rendering="geometricPrecision" shape-rendering="geometricPrecision" transform="matrix(1,0,0,1,-110,-202)" stroke="rgb(153,204,255)">
      <rect x="811" width="30" height="30" y="336" clip-path="url(#clipPath2)" stroke="none"/>
    </g>
    <g font-size="16px" stroke-linecap="butt" transform="matrix(1,0,0,1,-110,-202)" text-rendering="geometricPrecision" font-family="'Ubuntu Mono'" shape-rendering="geometricPrecision" stroke-miterlimit="1.45">
      <text x="822.0022" xml:space="preserve" y="356.2771" clip-path="url(#clipPath2)" stroke="none">2</text>
      <rect fill="none" x="811" width="30" height="30" y="336" clip-path="url(#clipPath2)"/>
    </g>
    <g fill="rgb(153,204,255)" text-rendering="geometricPrecision" shape-rendering="geometricPrecision" transform="matrix(1,0,0,1,-110,-202)" stroke="rgb(153,204,255)">
      <rect x="841" width="30" height="30" y="336" clip-path="url(#clipPath2)" stroke="none"/>
    </g>
    <g font-size="16px" stroke-linecap="butt" transform="matrix(1,0,0,1,-110,-202)" text-rendering="geometricPrecision" font-family="'Ubuntu Mono'" shape-rendering="geometricPrecision" stroke-miterlimit="1.45">
      <text x="852.0022" xml:space="preserve" y="356.2771" clip-path="url(#clipPath2)" stroke="none">3</text>
      <rect fill="none" x="841" width="30" height="30" y="336" clip-path="url(#clipPath2)"/>
    </g>
    <g fill="rgb(153,204,255)" text-rendering="geometricPrecision" shape-rendering="geometricPrecision" transform="matrix(1,0,0,1,-110,-202)" stroke="rgb(153,204,255)">
      <rect x="871" width="30" height="30" y="336" clip-path="url(#clipPath2)" stroke="none"/>
    </g>
    <g font-size="16px" stroke-linecap="butt" transform="matrix(1,0,0,1,-110,-202)" text-rendering="geometricPrecision" font-family="'Ubuntu Mono'" shape-rendering="geometricPrecision" stroke-miterlimit="1.45">
      <text x="874.0066" xml:space="preserve" y="356.2771" clip-path="url(#clipPath2)" stroke="none">...</text>
      <rect fill="none" x="871" width="30" height="30" y="336" clip-path="url(#clipPath2)"/>
    </g>
    <g fill="rgb(153,204,255)" text-rendering="geometricPrecision" shape-rendering="geometricPrecision" transform="matrix(1,0,0,1,-110,-202)" stroke="rgb(153,204,255)">
      <rect x="901" width="30" height="30" y="336" clip-path="url(#clipPath2)" stroke="none"/>
    </g>
    <g font-size="16px" stroke-linecap="butt" transform="matrix(1,0,0,1,-110,-202)" text-rendering="geometricPrecision" font-family="'Ubuntu Mono'" shape-rendering="geometricPrecision" stroke-miterlimit="1.45">
      <text x="908.0044" xml:space="preserve" y="356.2771" clip-path="url(#clipPath2)" stroke="none">NR</text>
      <rect fill="none" x="901" width="30" height="30" y="336" clip-path="url(#clipPath2)"/>
    </g>
    <g fill="rgb(153,204,0)" text-rendering="geometricPrecision" shape-rendering="geometricPrecision" transform="matrix(1,0,0,1,-110,-202)" stroke="rgb(153,204,0)">
      <rect x="551" width="100" height="30" y="415.5" clip-path="url(#clipPath2)" stroke="none"/>
    </g>
    <g font-size="16px" stroke-linecap="butt" transform="matrix(1,0,0,1,-110,-202)" text-rendering="geometricPrecision" font-family="'Ubuntu Mono'" shape-rendering="geometricPrecision" stroke-miterlimit="1.45">
      <text x="561.022" xml:space="preserve" y="435.7771" clip-path="url(#clipPath2)" stroke="none">uart_state</text>
      <rect fill="none" x="551" width="100" height="30" y="415.5" clip-path="url(#clipPath2)"/>
    </g>
    <g fill="rgb(153,204,255)" text-rendering="geometricPrecision" shape-rendering="geometricPrecision" transform="matrix(1,0,0,1,-110,-202)" stroke="rgb(153,204,255)">
      <rect x="551" width="100" height="30" y="445.5" clip-path="url(#clipPath2)" stroke="none"/>
    </g>
    <g font-size="16px" stroke-linecap="butt" transform="matrix(1,0,0,1,-110,-202)" text-rendering="geometricPrecision" font-family="'Ubuntu Mono'" shape-rendering="geometricPrecision" stroke-miterlimit="1.45">
      <text x="569.0176" xml:space="preserve" y="465.7771" clip-path="url(#clipPath2)" stroke="none">tty_port</text>
      <rect fill="none" x="551" width="100" height="30" y="445.5" clip-path="url(#clipPath2)"/>
    </g>
    <g fill="rgb(153,204,255)" text-rendering="geometricPrecision" shape-rendering="geometricPrecision" transform="matrix(1,0,0,1,-110,-202)" stroke="rgb(153,204,255)">
      <rect x="551" width="100" height="30" y="475.5" clip-path="url(#clipPath2)" stroke="none"/>
    </g>
    <g font-size="16px" stroke-linecap="butt" transform="matrix(1,0,0,1,-110,-202)" text-rendering="geometricPrecision" font-family="'Ubuntu Mono'" shape-rendering="geometricPrecision" stroke-miterlimit="1.45">
      <text x="561.022" xml:space="preserve" y="495.7771" clip-path="url(#clipPath2)" stroke="none">*uart_port</text>
      <rect fill="none" x="551" width="100" height="30" y="475.5" clip-path="url(#clipPath2)"/>
    </g>
    <g fill="rgb(153,204,255)" text-rendering="geometricPrecision" shape-rendering="geometricPrecision" transform="matrix(1,0,0,1,-110,-202)" stroke="rgb(153,204,255)">
      <rect x="551" width="100" height="30" y="505.5" clip-path="url(#clipPath2)" stroke="none"/>
    </g>
    <g font-size="16px" stroke-linecap="butt" transform="matrix(1,0,0,1,-110,-202)" text-rendering="geometricPrecision" font-family="'Ubuntu Mono'" shape-rendering="geometricPrecision" stroke-miterlimit="1.45">
      <text x="569.0176" xml:space="preserve" y="525.7771" clip-path="url(#clipPath2)" stroke="none">circ_buf</text>
      <rect fill="none" x="551" width="100" height="30" y="505.5" clip-path="url(#clipPath2)"/>
    </g>
    <g fill="rgb(153,204,0)" text-rendering="geometricPrecision" shape-rendering="geometricPrecision" transform="matrix(1,0,0,1,-110,-202)" stroke="rgb(153,204,0)">
      <rect x="285" width="100" height="30" y="398" clip-path="url(#clipPath2)" stroke="none"/>
    </g>
    <g font-size="16px" stroke-linecap="butt" transform="matrix(1,0,0,1,-110,-202)" text-rendering="geometricPrecision" font-family="'Ubuntu Mono'" shape-rendering="geometricPrecision" stroke-miterlimit="1.45">
      <text x="299.0198" xml:space="preserve" y="418.2771" clip-path="url(#clipPath2)" stroke="none">uart_port</text>
      <rect fill="none" x="285" width="100" height="30" y="398" clip-path="url(#clipPath2)"/>
    </g>
    <g fill="rgb(153,204,255)" text-rendering="geometricPrecision" shape-rendering="geometricPrecision" transform="matrix(1,0,0,1,-110,-202)" stroke="rgb(153,204,255)">
      <rect x="285" width="100" height="185" y="428" clip-path="url(#clipPath2)" stroke="none"/>
    </g>
    <g font-size="16px" stroke-linecap="butt" transform="matrix(1,0,0,1,-110,-202)" text-rendering="geometricPrecision" font-family="'Ubuntu Mono'" shape-rendering="geometricPrecision" stroke-miterlimit="1.45">
      <text x="311.0132" xml:space="preserve" y="477.8035" clip-path="url(#clipPath2)" stroke="none">iobase</text>
      <text x="303.0176" xml:space="preserve" y="493.7947" clip-path="url(#clipPath2)" stroke="none">*membase</text>
      <text x="299.0198" xml:space="preserve" y="509.7859" clip-path="url(#clipPath2)" stroke="none">serial_in</text>
      <text x="295.022" xml:space="preserve" y="525.7771" clip-path="url(#clipPath2)" stroke="none">serial_out</text>
      <text x="291.0242" xml:space="preserve" y="541.7683" clip-path="url(#clipPath2)" stroke="none">set_termios</text>
      <text x="323.0066" xml:space="preserve" y="557.7595" clip-path="url(#clipPath2)" stroke="none">irq</text>
      <text x="307.0154" xml:space="preserve" y="573.7507" clip-path="url(#clipPath2)" stroke="none">... ...</text>
      <rect fill="none" x="285" width="100" height="185" y="428" clip-path="url(#clipPath2)"/>
    </g>
    <g fill="rgb(153,204,255)" text-rendering="geometricPrecision" shape-rendering="geometricPrecision" transform="matrix(1,0,0,1,-110,-202)" stroke="rgb(153,204,255)">
      <rect x="285" width="100" height="30" y="613" clip-path="url(#clipPath2)" stroke="none"/>
    </g>
    <g font-size="16px" stroke-linecap="butt" transform="matrix(1,0,0,1,-110,-202)" text-rendering="geometricPrecision" font-family="'Ubuntu Mono'" shape-rendering="geometricPrecision" stroke-miterlimit="1.45">
      <text x="323.0066" xml:space="preserve" y="633.2771" clip-path="url(#clipPath2)" stroke="none">ops</text>
      <rect fill="none" x="285" width="100" height="30" y="613" clip-path="url(#clipPath2)"/>
    </g>
    <g fill="rgb(153,204,255)" text-rendering="geometricPrecision" shape-rendering="geometricPrecision" transform="matrix(1,0,0,1,-110,-202)" stroke="rgb(153,204,255)">
      <rect x="285" width="100" height="30" y="643" clip-path="url(#clipPath2)" stroke="none"/>
    </g>
    <g font-size="16px" stroke-linecap="butt" transform="matrix(1,0,0,1,-110,-202)" text-rendering="geometricPrecision" font-family="'Ubuntu Mono'" shape-rendering="geometricPrecision" stroke-miterlimit="1.45">
      <text x="311.0132" xml:space="preserve" y="663.2771" clip-path="url(#clipPath2)" stroke="none">*state</text>
      <rect fill="none" x="285" width="100" height="30" y="643" clip-path="url(#clipPath2)"/>
    </g>
    <g fill="rgb(153,204,0)" text-rendering="geometricPrecision" shape-rendering="geometricPrecision" transform="matrix(1,0,0,1,-110,-202)" stroke="rgb(153,204,0)">
      <rect x="551" width="100" height="30" y="747.5" clip-path="url(#clipPath2)" stroke="none"/>
    </g>
    <g font-size="16px" stroke-linecap="butt" transform="matrix(1,0,0,1,-110,-202)" text-rendering="geometricPrecision" font-family="'Ubuntu Mono'" shape-rendering="geometricPrecision" stroke-miterlimit="1.45">
      <text x="561.022" xml:space="preserve" y="767.7771" clip-path="url(#clipPath2)" stroke="none">uart_state</text>
      <rect fill="none" x="551" width="100" height="30" y="747.5" clip-path="url(#clipPath2)"/>
    </g>
    <g fill="rgb(153,204,255)" text-rendering="geometricPrecision" shape-rendering="geometricPrecision" transform="matrix(1,0,0,1,-110,-202)" stroke="rgb(153,204,255)">
      <rect x="551" width="100" height="30" y="777.5" clip-path="url(#clipPath2)" stroke="none"/>
    </g>
    <g font-size="16px" stroke-linecap="butt" transform="matrix(1,0,0,1,-110,-202)" text-rendering="geometricPrecision" font-family="'Ubuntu Mono'" shape-rendering="geometricPrecision" stroke-miterlimit="1.45">
      <text x="569.0176" xml:space="preserve" y="797.7771" clip-path="url(#clipPath2)" stroke="none">tty_port</text>
      <rect fill="none" x="551" width="100" height="30" y="777.5" clip-path="url(#clipPath2)"/>
    </g>
    <g fill="rgb(153,204,255)" text-rendering="geometricPrecision" shape-rendering="geometricPrecision" transform="matrix(1,0,0,1,-110,-202)" stroke="rgb(153,204,255)">
      <rect x="551" width="100" height="30" y="807.5" clip-path="url(#clipPath2)" stroke="none"/>
    </g>
    <g font-size="16px" stroke-linecap="butt" transform="matrix(1,0,0,1,-110,-202)" text-rendering="geometricPrecision" font-family="'Ubuntu Mono'" shape-rendering="geometricPrecision" stroke-miterlimit="1.45">
      <text x="561.022" xml:space="preserve" y="827.7771" clip-path="url(#clipPath2)" stroke="none">*uart_port</text>
      <rect fill="none" x="551" width="100" height="30" y="807.5" clip-path="url(#clipPath2)"/>
    </g>
    <g fill="rgb(153,204,255)" text-rendering="geometricPrecision" shape-rendering="geometricPrecision" transform="matrix(1,0,0,1,-110,-202)" stroke="rgb(153,204,255)">
      <rect x="551" width="100" height="30" y="837.5" clip-path="url(#clipPath2)" stroke="none"/>
    </g>
    <g font-size="16px" stroke-linecap="butt" transform="matrix(1,0,0,1,-110,-202)" text-rendering="geometricPrecision" font-family="'Ubuntu Mono'" shape-rendering="geometricPrecision" stroke-miterlimit="1.45">
      <text x="569.0176" xml:space="preserve" y="857.7771" clip-path="url(#clipPath2)" stroke="none">circ_buf</text>
      <rect fill="none" x="551" width="100" height="30" y="837.5" clip-path="url(#clipPath2)"/>
    </g>
    <g fill="rgb(153,204,0)" text-rendering="geometricPrecision" shape-rendering="geometricPrecision" transform="matrix(1,0,0,1,-110,-202)" stroke="rgb(153,204,0)">
      <rect x="285" width="100" height="30" y="730" clip-path="url(#clipPath2)" stroke="none"/>
    </g>
    <g font-size="16px" stroke-linecap="butt" transform="matrix(1,0,0,1,-110,-202)" text-rendering="geometricPrecision" font-family="'Ubuntu Mono'" shape-rendering="geometricPrecision" stroke-miterlimit="1.45">
      <text x="299.0198" xml:space="preserve" y="750.2771" clip-path="url(#clipPath2)" stroke="none">uart_port</text>
      <rect fill="none" x="285" width="100" height="30" y="730" clip-path="url(#clipPath2)"/>
    </g>
    <g fill="rgb(153,204,255)" text-rendering="geometricPrecision" shape-rendering="geometricPrecision" transform="matrix(1,0,0,1,-110,-202)" stroke="rgb(153,204,255)">
      <rect x="285" width="100" height="185" y="760" clip-path="url(#clipPath2)" stroke="none"/>
    </g>
    <g font-size="16px" stroke-linecap="butt" transform="matrix(1,0,0,1,-110,-202)" text-rendering="geometricPrecision" font-family="'Ubuntu Mono'" shape-rendering="geometricPrecision" stroke-miterlimit="1.45">
      <text x="311.0132" xml:space="preserve" y="809.8035" clip-path="url(#clipPath2)" stroke="none">iobase</text>
      <text x="303.0176" xml:space="preserve" y="825.7947" clip-path="url(#clipPath2)" stroke="none">*membase</text>
      <text x="299.0198" xml:space="preserve" y="841.7859" clip-path="url(#clipPath2)" stroke="none">serial_in</text>
      <text x="295.022" xml:space="preserve" y="857.7771" clip-path="url(#clipPath2)" stroke="none">serial_out</text>
      <text x="291.0242" xml:space="preserve" y="873.7683" clip-path="url(#clipPath2)" stroke="none">set_termios</text>
      <text x="323.0066" xml:space="preserve" y="889.7595" clip-path="url(#clipPath2)" stroke="none">irq</text>
      <text x="307.0154" xml:space="preserve" y="905.7507" clip-path="url(#clipPath2)" stroke="none">... ...</text>
      <rect fill="none" x="285" width="100" height="185" y="760" clip-path="url(#clipPath2)"/>
    </g>
    <g fill="rgb(153,204,255)" text-rendering="geometricPrecision" shape-rendering="geometricPrecision" transform="matrix(1,0,0,1,-110,-202)" stroke="rgb(153,204,255)">
      <rect x="285" width="100" height="30" y="945" clip-path="url(#clipPath2)" stroke="none"/>
    </g>
    <g font-size="16px" stroke-linecap="butt" transform="matrix(1,0,0,1,-110,-202)" text-rendering="geometricPrecision" font-family="'Ubuntu Mono'" shape-rendering="geometricPrecision" stroke-miterlimit="1.45">
      <text x="323.0066" xml:space="preserve" y="965.2771" clip-path="url(#clipPath2)" stroke="none">ops</text>
      <rect fill="none" x="285" width="100" height="30" y="945" clip-path="url(#clipPath2)"/>
    </g>
    <g fill="rgb(153,204,255)" text-rendering="geometricPrecision" shape-rendering="geometricPrecision" transform="matrix(1,0,0,1,-110,-202)" stroke="rgb(153,204,255)">
      <rect x="285" width="100" height="30" y="975" clip-path="url(#clipPath2)" stroke="none"/>
    </g>
    <g font-size="16px" stroke-linecap="butt" transform="matrix(1,0,0,1,-110,-202)" text-rendering="geometricPrecision" font-family="'Ubuntu Mono'" shape-rendering="geometricPrecision" stroke-miterlimit="1.45">
      <text x="311.0132" xml:space="preserve" y="995.2771" clip-path="url(#clipPath2)" stroke="none">*state</text>
      <rect fill="none" x="285" width="100" height="30" y="975" clip-path="url(#clipPath2)"/>
      <text x="818.5027" font-size="30px" y="440.3996" clip-path="url(#clipPath2)" fill="rgb(153,204,255)" stroke="none" xml:space="preserve">. . . . .</text>
    </g>
    <g fill="rgb(153,204,0)" text-rendering="geometricPrecision" shape-rendering="geometricPrecision" transform="matrix(1,0,0,1,-110,-202)" stroke="rgb(153,204,0)">
      <rect x="125" width="100" height="30" y="338" clip-path="url(#clipPath2)" stroke="none"/>
    </g>
    <g font-size="16px" stroke-linecap="butt" transform="matrix(1,0,0,1,-110,-202)" text-rendering="geometricPrecision" font-family="'Ubuntu Mono'" shape-rendering="geometricPrecision" stroke-miterlimit="1.45">
      <text x="131.0242" xml:space="preserve" y="358.2771" clip-path="url(#clipPath2)" stroke="none">tty_drivers</text>
      <rect fill="none" x="125" width="100" height="30" y="338" clip-path="url(#clipPath2)"/>
    </g>
    <g fill="rgb(153,204,0)" text-rendering="geometricPrecision" shape-rendering="geometricPrecision" transform="matrix(1,0,0,1,-110,-202)" stroke="rgb(153,204,0)">
      <rect x="125" width="100" height="30" y="278" clip-path="url(#clipPath2)" stroke="none"/>
    </g>
    <g font-size="16px" stroke-linecap="butt" transform="matrix(1,0,0,1,-110,-202)" text-rendering="geometricPrecision" font-family="'Ubuntu Mono'" shape-rendering="geometricPrecision" stroke-miterlimit="1.45">
      <text x="143.0176" xml:space="preserve" y="298.2771" clip-path="url(#clipPath2)" stroke="none">uart_ops</text>
      <rect fill="none" x="125" width="100" height="30" y="278" clip-path="url(#clipPath2)"/>
    </g>
    <g fill="rgb(153,204,0)" text-rendering="geometricPrecision" shape-rendering="geometricPrecision" transform="matrix(1,0,0,1,-110,-202)" stroke="rgb(153,204,0)">
      <rect x="711" width="100" height="30" y="445.5" clip-path="url(#clipPath2)" stroke="none"/>
    </g>
    <g font-size="16px" stroke-linecap="butt" transform="matrix(1,0,0,1,-110,-202)" text-rendering="geometricPrecision" font-family="'Ubuntu Mono'" shape-rendering="geometricPrecision" stroke-miterlimit="1.45">
      <text x="729.0176" xml:space="preserve" y="465.7771" clip-path="url(#clipPath2)" stroke="none">tty_port</text>
      <rect fill="none" x="711" width="100" height="30" y="445.5" clip-path="url(#clipPath2)"/>
    </g>
    <g fill="rgb(153,204,255)" text-rendering="geometricPrecision" shape-rendering="geometricPrecision" transform="matrix(1,0,0,1,-110,-202)" stroke="rgb(153,204,255)">
      <rect x="711" width="100" height="30" y="475.5" clip-path="url(#clipPath2)" stroke="none"/>
    </g>
    <g font-size="16px" stroke-linecap="butt" transform="matrix(1,0,0,1,-110,-202)" text-rendering="geometricPrecision" font-family="'Ubuntu Mono'" shape-rendering="geometricPrecision" stroke-miterlimit="1.45">
      <text x="717.0242" xml:space="preserve" y="495.7771" clip-path="url(#clipPath2)" stroke="none">*tty_struct</text>
      <rect fill="none" x="711" width="100" height="30" y="475.5" clip-path="url(#clipPath2)"/>
    </g>
    <g fill="rgb(153,204,0)" text-rendering="geometricPrecision" shape-rendering="geometricPrecision" transform="matrix(1,0,0,1,-110,-202)" stroke="rgb(153,204,0)">
      <rect x="905" width="100" height="30" y="218" clip-path="url(#clipPath2)" stroke="none"/>
    </g>
    <g font-size="16px" stroke-linecap="butt" transform="matrix(1,0,0,1,-110,-202)" text-rendering="geometricPrecision" font-family="'Ubuntu Mono'" shape-rendering="geometricPrecision" stroke-miterlimit="1.45">
      <text x="943.0066" xml:space="preserve" y="238.2771" clip-path="url(#clipPath2)" stroke="none">tty</text>
      <rect fill="none" x="905" width="100" height="30" y="218" clip-path="url(#clipPath2)"/>
    </g>
    <g fill="rgb(153,204,255)" text-rendering="geometricPrecision" shape-rendering="geometricPrecision" transform="matrix(1,0,0,1,-110,-202)" stroke="rgb(153,204,255)">
      <rect x="905" width="100" height="30" y="248" clip-path="url(#clipPath2)" stroke="none"/>
    </g>
    <g font-size="16px" stroke-linecap="butt" transform="matrix(1,0,0,1,-110,-202)" text-rendering="geometricPrecision" font-family="'Ubuntu Mono'" shape-rendering="geometricPrecision" stroke-miterlimit="1.45">
      <text x="911.0242" xml:space="preserve" y="268.2771" clip-path="url(#clipPath2)" stroke="none">*tty_driver</text>
      <rect fill="none" x="905" width="100" height="30" y="248" clip-path="url(#clipPath2)"/>
    </g>
    <g fill="rgb(153,204,255)" text-rendering="geometricPrecision" shape-rendering="geometricPrecision" transform="matrix(1,0,0,1,-110,-202)" stroke="rgb(153,204,255)">
      <rect x="905" width="100" height="30" y="278" clip-path="url(#clipPath2)" stroke="none"/>
    </g>
    <g font-size="16px" stroke-linecap="butt" transform="matrix(1,0,0,1,-110,-202)" text-rendering="geometricPrecision" font-family="'Ubuntu Mono'" shape-rendering="geometricPrecision" stroke-miterlimit="1.45">
      <text x="915.022" xml:space="preserve" y="298.2771" clip-path="url(#clipPath2)" stroke="none">*tty_ldisc</text>
      <rect fill="none" x="905" width="100" height="30" y="278" clip-path="url(#clipPath2)"/>
    </g>
    <g fill="rgb(153,204,0)" text-rendering="geometricPrecision" shape-rendering="geometricPrecision" transform="matrix(1,0,0,1,-110,-202)" stroke="rgb(153,204,0)">
      <rect x="711" width="100" height="30" y="777.5" clip-path="url(#clipPath2)" stroke="none"/>
    </g>
    <g font-size="16px" stroke-linecap="butt" transform="matrix(1,0,0,1,-110,-202)" text-rendering="geometricPrecision" font-family="'Ubuntu Mono'" shape-rendering="geometricPrecision" stroke-miterlimit="1.45">
      <text x="729.0176" xml:space="preserve" y="797.7771" clip-path="url(#clipPath2)" stroke="none">tty_port</text>
      <rect fill="none" x="711" width="100" height="30" y="777.5" clip-path="url(#clipPath2)"/>
    </g>
    <g fill="rgb(153,204,255)" text-rendering="geometricPrecision" shape-rendering="geometricPrecision" transform="matrix(1,0,0,1,-110,-202)" stroke="rgb(153,204,255)">
      <rect x="711" width="100" height="30" y="807.5" clip-path="url(#clipPath2)" stroke="none"/>
    </g>
    <g font-size="16px" stroke-linecap="butt" transform="matrix(1,0,0,1,-110,-202)" text-rendering="geometricPrecision" font-family="'Ubuntu Mono'" shape-rendering="geometricPrecision" stroke-miterlimit="1.45">
      <text x="717.0242" xml:space="preserve" y="827.7771" clip-path="url(#clipPath2)" stroke="none">*tty_struct</text>
      <rect fill="none" x="711" width="100" height="30" y="807.5" clip-path="url(#clipPath2)"/>
    </g>
    <g fill="rgb(153,204,0)" text-rendering="geometricPrecision" shape-rendering="geometricPrecision" transform="matrix(1,0,0,1,-110,-202)" stroke="rgb(153,204,0)">
      <rect x="699" width="124" height="30" y="248" clip-path="url(#clipPath2)" stroke="none"/>
    </g>
    <g font-size="16px" stroke-linecap="butt" transform="matrix(1,0,0,1,-110,-202)" text-rendering="geometricPrecision" font-family="'Ubuntu Mono'" shape-rendering="geometricPrecision" stroke-miterlimit="1.45">
      <text x="725.0198" xml:space="preserve" y="268.2771" clip-path="url(#clipPath2)" stroke="none">tty_ldisc</text>
      <rect fill="none" x="699" width="124" height="30" y="248" clip-path="url(#clipPath2)"/>
    </g>
    <g fill="rgb(153,204,255)" text-rendering="geometricPrecision" shape-rendering="geometricPrecision" transform="matrix(1,0,0,1,-110,-202)" stroke="rgb(153,204,255)">
      <rect x="699" width="124" height="30" y="278" clip-path="url(#clipPath2)" stroke="none"/>
    </g>
    <g font-size="16px" stroke-linecap="butt" transform="matrix(1,0,0,1,-110,-202)" text-rendering="geometricPrecision" font-family="'Ubuntu Mono'" shape-rendering="geometricPrecision" stroke-miterlimit="1.45">
      <text x="709.0286" xml:space="preserve" y="298.2771" clip-path="url(#clipPath2)" stroke="none">tty_ldisc_ops</text>
      <rect fill="none" x="699" width="124" height="30" y="278" clip-path="url(#clipPath2)"/>
      <path fill="none" d="M435 323 L501.3851 323 L501.3851 282 L533.2299 282" clip-path="url(#clipPath2)"/>
      <path d="M541.2299 282 L529.2299 277 L532.2299 282 L529.2299 287 Z" stroke="none" clip-path="url(#clipPath2)"/>
      <path fill="none" d="M541.239 349.5 L468 349.5 L468 263 L443 263" clip-path="url(#clipPath2)"/>
      <path d="M435 263 L447 268 L444 263 L447 258 Z" stroke="none" clip-path="url(#clipPath2)"/>
      <path fill="none" d="M641.2299 312 L670.1149 312 L670.1149 351 L773 351" clip-path="url(#clipPath2)"/>
      <path d="M781 351 L769 346 L772 351 L769 356 Z" stroke="none" clip-path="url(#clipPath2)"/>
      <path fill="none" d="M796 366 L796 430.5 L659 430.5" clip-path="url(#clipPath2)"/>
      <path d="M651 430.5 L663 435.5 L660 430.5 L663 425.5 Z" stroke="none" clip-path="url(#clipPath2)"/>
      <path fill="none" d="M551 490.5 L426.2344 490.5 L426.2344 413 L393 413" clip-path="url(#clipPath2)"/>
      <path d="M385 413 L397 418 L394 413 L397 408 Z" stroke="none" clip-path="url(#clipPath2)"/>
      <path fill="none" d="M385 658 L492.2344 658 L492.2344 430.5 L543 430.5" clip-path="url(#clipPath2)"/>
      <path d="M551 430.5 L539 425.5 L542 430.5 L539 435.5 Z" stroke="none" clip-path="url(#clipPath2)"/>
      <path fill="none" d="M916 366 L916 762.5 L659 762.5" clip-path="url(#clipPath2)"/>
      <path d="M651 762.5 L663 767.5 L660 762.5 L663 757.5 Z" stroke="none" clip-path="url(#clipPath2)"/>
      <path fill="none" d="M551 822.5 L426.2344 822.5 L426.2344 745 L393 745" clip-path="url(#clipPath2)"/>
      <path d="M385 745 L397 750 L394 745 L397 740 Z" stroke="none" clip-path="url(#clipPath2)"/>
      <path fill="none" d="M385 990 L492.2344 990 L492.2344 762.5 L543 762.5" clip-path="url(#clipPath2)"/>
      <path d="M551 762.5 L539 757.5 L542 762.5 L539 767.5 Z" stroke="none" clip-path="url(#clipPath2)"/>
      <path fill="none" d="M285.0189 346.5327 L232.9837 346.5327" clip-path="url(#clipPath2)"/>
      <path d="M224.9837 346.5327 L236.9837 351.5327 L233.9837 346.5327 L236.9837 341.5327 Z" stroke="none" clip-path="url(#clipPath2)"/>
      <path fill="none" d="M225.0062 359.046 L276.9739 359.046" clip-path="url(#clipPath2)"/>
      <path d="M284.9739 359.046 L272.9739 354.046 L275.9739 359.046 L272.9739 364.046 Z" stroke="none" clip-path="url(#clipPath2)"/>
      <path fill="none" d="M285 293 L233 293" clip-path="url(#clipPath2)"/>
      <path d="M225 293 L237 298 L234 293 L237 288 Z" stroke="none" clip-path="url(#clipPath2)"/>
      <path fill="none" d="M659 460.5 L703 460.5" clip-path="url(#clipPath2)"/>
      <path d="M651 460.5 L663 465.5 L660 460.5 L663 455.5 Z" stroke="none" clip-path="url(#clipPath2)"/>
      <path d="M711 460.5 L699 455.5 L702 460.5 L699 465.5 Z" stroke="none" clip-path="url(#clipPath2)"/>
      <path fill="none" d="M811 490.5 L1034.625 490.5 L1034.625 239.5 L1013.0108 239.5" clip-path="url(#clipPath2)"/>
      <path d="M1005.0108 239.5 L1017.0108 244.5 L1014.0108 239.5 L1017.0108 234.5 Z" stroke="none" clip-path="url(#clipPath2)"/>
      <path fill="none" d="M905 263 L877.675 263 L877.675 217.4375 L360 217.4375 L360 240" clip-path="url(#clipPath2)"/>
      <path d="M360 248 L365 236 L360 239 L355 236 Z" stroke="none" clip-path="url(#clipPath2)"/>
      <path fill="none" d="M659 792.5 L703 792.5" clip-path="url(#clipPath2)"/>
      <path d="M651 792.5 L663 797.5 L660 792.5 L663 787.5 Z" stroke="none" clip-path="url(#clipPath2)"/>
      <path d="M711 792.5 L699 787.5 L702 792.5 L699 797.5 Z" stroke="none" clip-path="url(#clipPath2)"/>
      <path fill="none" d="M811 822.5 L1054.625 822.5 L1054.625 227.3054 L1013.041 227.3054" clip-path="url(#clipPath2)"/>
      <path d="M1005.041 227.3054 L1017.041 232.3054 L1014.041 227.3054 L1017.041 222.3054 Z" stroke="none" clip-path="url(#clipPath2)"/>
      <path fill="none" d="M905 293 L856 293 L856 263 L831 263" clip-path="url(#clipPath2)"/>
      <path d="M823 263 L835 268 L832 263 L835 258 Z" stroke="none" clip-path="url(#clipPath2)"/>
    </g>
  </g>
</svg>
